<svg width="48" height="48" viewBox="0 0 48 48" fill="none" xmlns="http://www.w3.org/2000/svg">
<path d="M0.577515 34.5C0.817515 34.5 4.32751 34.2675 10.1925 28.9575C6.33751 32.475 3.51751 33.7725 1.94251 34.2075L0.817515 34.545L0.577515 34.5ZM28.6725 10.08C29.9025 8.11503 31.95 5.85753 35.0325 5.34753C31.95 5.88753 29.9025 8.13753 28.6725 10.08Z" fill="black"/>
<path d="M36.3525 4.85999C30.0225 4.85999 27.3075 11.7075 26.8875 12.8925C20.6175 15.39 15.9375 22.2525 15.75 22.5C6.315 34.0275 0.652496 34.1625 0.577496 34.1625H0.539996C0.45465 34.1724 0.375304 34.2114 0.315233 34.2728C0.255163 34.3342 0.218012 34.4144 0.209996 34.5C0.193116 34.5872 0.209049 34.6775 0.254734 34.7536C0.300419 34.8298 0.372632 34.8864 0.457496 34.9125C1.9575 35.4225 3.4575 35.88 4.86 36.27C7.39033 36.9999 9.96254 37.576 12.5625 37.995H12.6675C14.9932 38.3786 17.3454 38.5792 19.7025 38.595C21.4463 38.6025 23.1875 38.462 24.9075 38.175L25.6575 38.0325C26.9214 37.7734 28.1608 37.4071 29.3625 36.9375L30.03 36.645C31.3716 36.0594 32.632 35.3032 33.78 34.395C40.725 28.905 40.8 19.6575 40.7475 17.895C40.8977 17.8277 41.0431 17.75 41.1825 17.6625C41.8492 17.2075 42.3702 16.5693 42.6825 15.825C42.7939 15.567 42.8867 15.3013 42.96 15.03C43.0158 14.8258 43.0559 14.6177 43.08 14.4075C43.1742 13.6082 43.1842 12.8013 43.11 12C43.11 11.7 43.0425 11.4225 43.005 11.16C42.8858 10.4053 42.6846 9.66597 42.405 8.95499C40.905 5.20499 38.0625 4.93499 37.3575 4.93499C37.245 4.93499 37.185 4.93499 37.1925 4.93499C36.9135 4.90543 36.6331 4.89041 36.3525 4.88999V4.85999ZM12.6375 37.23C10.5006 36.8836 8.38281 36.428 6.2925 35.865C5.8575 35.7525 5.415 35.625 4.965 35.4975C4.0125 35.235 3.045 34.9425 2.055 34.6275C4.3875 33.93 9.3375 31.5 16.305 22.965C16.3425 22.8975 19.9425 17.64 24.8925 14.715C25.1025 14.5875 25.32 14.4675 25.5375 14.3475C26.025 14.0925 26.5125 13.8525 27.0375 13.6425L27.2925 13.545C27.3433 13.5221 27.3889 13.489 27.4263 13.4477C27.4637 13.4064 27.4922 13.3578 27.51 13.305C27.51 13.305 27.51 13.2 27.6075 13.0275C28.11 11.6625 30.6675 5.62499 36.4125 5.62499C36.66 5.62499 36.915 5.62499 37.1625 5.62499H37.2825C37.8675 5.62499 40.3275 5.82749 41.6925 9.19499C41.9631 9.88816 42.1519 10.6105 42.255 11.3475C42.2479 11.3922 42.2479 11.4378 42.255 11.4825C42.3801 12.4259 42.3801 13.3816 42.255 14.325C42.2069 14.6771 42.1162 15.0222 41.985 15.3525C41.985 15.3525 41.985 15.3525 41.985 15.39C41.7353 16.0724 41.2724 16.6562 40.665 17.055C40.5129 17.1592 40.346 17.2401 40.17 17.295C40.089 17.3198 40.0185 17.3709 39.9696 17.4401C39.9208 17.5093 39.8963 17.5928 39.9 17.6775C39.9 17.6775 39.9 17.8125 39.9 18.0375C39.945 19.8975 39.78 28.605 33.21 33.7875C32.046 34.7039 30.7646 35.4607 29.4 36.0375H29.3325C27.9697 36.6184 26.5457 37.0435 25.0875 37.305C25.0428 37.312 24.9972 37.312 24.9525 37.305C23.2029 37.6209 21.4278 37.774 19.65 37.7625C17.8762 37.7867 16.1027 37.699 14.34 37.5C13.785 37.425 13.2225 37.3425 12.6525 37.245L12.6375 37.23Z" fill="black"/>
<path d="M33.27 33.81C32.106 34.7265 30.8246 35.4832 29.46 36.06H29.3925C28.0297 36.6409 26.6057 37.0661 25.1475 37.3275C25.1028 37.3205 25.0573 37.3205 25.0125 37.3275C21.4854 37.9376 17.885 37.9958 14.34 37.5C24.345 34.3125 29.94 30.48 31.44 25.77C32.49 22.5 31.5 18.75 28.5 14.3475C33.0825 16.89 36.69 18.045 39.96 18.0525C40.005 19.9125 39.84 28.62 33.27 33.81Z" fill="#94DAF6"/>
<path d="M24.9675 23.655C22.7175 28.2675 16.1775 32.1375 4.96499 35.4975C4.01249 35.235 3.04499 34.9425 2.05499 34.6275C4.38749 33.93 9.33749 31.5 16.305 22.965C16.3425 22.8975 19.9425 17.64 24.8925 14.715C26.205 18.2475 26.25 21.105 24.9675 23.655Z" fill="#94DAF6"/>
<path d="M26.73 41.475L26.67 41.5125C26.6228 41.5203 26.5747 41.5203 26.5275 41.5125C26.4619 41.5054 26.3994 41.4807 26.3466 41.4412C26.2939 41.4016 26.2527 41.3485 26.2275 41.2875L26.0625 40.8825L24.945 38.1375L24.825 37.845C24.7875 37.7555 24.787 37.6547 24.8235 37.5648C24.8601 37.4749 24.9307 37.403 25.02 37.365C25.0647 37.358 25.1103 37.358 25.155 37.365C25.2258 37.3708 25.2937 37.3954 25.3517 37.4363C25.4097 37.4771 25.4558 37.5328 25.485 37.5975L25.6575 38.025L26.76 40.7175L26.8875 41.04C26.9165 41.1195 26.9167 41.2066 26.8879 41.2862C26.8591 41.3657 26.8032 41.4326 26.73 41.475Z" fill="black"/>
<path d="M25.1325 37.3574C25.0878 37.3504 25.0422 37.3504 24.9975 37.3574C24.9082 37.3955 24.8375 37.4673 24.801 37.5572C24.7645 37.6472 24.765 37.7479 24.8025 37.8374L24.9225 38.1299L26.04 40.8749L26.205 41.2799C26.2302 41.3409 26.2713 41.394 26.3241 41.4336C26.3769 41.4732 26.4394 41.4978 26.505 41.5049C26.5522 41.5128 26.6003 41.5128 26.6475 41.5049L26.7075 41.4674C26.7784 41.4213 26.8308 41.3517 26.8555 41.2707C26.8802 41.1898 26.8756 41.1028 26.8425 41.0249L26.715 40.7024L25.6125 38.0099L25.5 37.5899C25.4708 37.5252 25.4247 37.4696 25.3667 37.4287C25.3087 37.3878 25.2407 37.3632 25.17 37.3574H25.1325Z" fill="black"/>
<path d="M24.465 43.14C24.4228 43.1469 24.3797 43.1469 24.3375 43.14C24.292 43.1226 24.2503 43.0963 24.215 43.0627C24.1797 43.029 24.1515 42.9887 24.1319 42.944C24.1124 42.8994 24.1019 42.8512 24.1012 42.8025C24.1004 42.7537 24.1094 42.7053 24.1275 42.66C24.5031 41.8611 25.18 41.2435 26.01 40.9425C27.5625 40.35 29.61 40.6875 32.085 41.9625C32.1715 42.0073 32.2367 42.0846 32.2662 42.1774C32.2957 42.2703 32.2872 42.371 32.2425 42.4575C32.2217 42.5007 32.1925 42.5394 32.1566 42.5711C32.1207 42.6029 32.0789 42.6272 32.0335 42.6426C31.988 42.6579 31.94 42.6641 31.8922 42.6606C31.8444 42.6572 31.7977 42.6442 31.755 42.6225C29.505 41.4675 27.6225 41.1225 26.2875 41.625C25.9627 41.733 25.6628 41.9047 25.4052 42.1301C25.1477 42.3555 24.9376 42.63 24.7875 42.9375C24.7567 42.997 24.7106 43.0472 24.6539 43.0828C24.5972 43.1184 24.5319 43.1382 24.465 43.14Z" fill="black"/>
<path d="M27.6375 40.6275C27.0822 40.6224 26.5306 40.719 26.01 40.9125C25.18 41.2135 24.5031 41.831 24.1275 42.63C24.1094 42.6753 24.1004 42.7237 24.1012 42.7724C24.1019 42.8212 24.1124 42.8693 24.1319 42.914C24.1515 42.9587 24.1797 42.999 24.215 43.0326C24.2503 43.0663 24.292 43.0926 24.3375 43.11C24.3797 43.1168 24.4228 43.1168 24.465 43.11C24.539 43.1096 24.6113 43.0873 24.6727 43.046C24.7341 43.0046 24.7819 42.946 24.81 42.8775C24.9602 42.5699 25.1702 42.2954 25.4277 42.0701C25.6853 41.8447 25.9852 41.673 26.31 41.565C26.7377 41.4096 27.19 41.3334 27.645 41.34C29.0984 41.423 30.5129 41.8414 31.7775 42.5625C31.8281 42.5898 31.8851 42.6028 31.9425 42.6C32.01 42.6007 32.0763 42.5819 32.1335 42.546C32.1906 42.5101 32.2363 42.4586 32.265 42.3975C32.3097 42.3109 32.3182 42.2102 32.2887 42.1174C32.2592 42.0246 32.194 41.9473 32.1075 41.9025C30.7474 41.1259 29.2241 40.6789 27.66 40.5975L27.6375 40.6275ZM31.5 41.01L31.41 41.0625C31.3653 41.0695 31.3197 41.0695 31.275 41.0625H31.215C31.1526 41.0539 31.0938 41.0284 31.0449 40.9887C30.9959 40.949 30.9588 40.8967 30.9375 40.8375L30.75 40.455L29.3175 36.9225L29.175 36.5625C29.1369 36.4759 29.1344 36.3777 29.1681 36.2893C29.2018 36.2009 29.2689 36.1293 29.355 36.09H29.4225C29.5057 36.0738 29.5919 36.0875 29.666 36.1287C29.7401 36.1698 29.7973 36.2358 29.8275 36.315L29.97 36.66L31.47 40.29L31.605 40.6125C31.6272 40.6819 31.6291 40.7561 31.6105 40.8265C31.5918 40.897 31.5535 40.9606 31.5 41.01Z" fill="black"/>
<path d="M29.5275 36.06H29.46H29.3925C29.3064 36.0993 29.2393 36.171 29.2056 36.2594C29.1719 36.3478 29.1744 36.4459 29.2125 36.5325L29.355 36.8925L30.75 40.455L30.9225 40.8675C30.9438 40.9268 30.9809 40.9791 31.0299 41.0188C31.0788 41.0584 31.1376 41.0839 31.2 41.0925H31.26C31.3047 41.0996 31.3503 41.0996 31.395 41.0925L31.485 41.04C31.5444 40.9883 31.5864 40.9194 31.6052 40.8429C31.624 40.7664 31.6187 40.6859 31.59 40.6125L31.5 40.26L30 36.63L29.8575 36.285C29.8313 36.2174 29.7848 36.1594 29.7244 36.1191C29.664 36.0789 29.5926 36.0582 29.52 36.06H29.5275Z" fill="black"/>
<path d="M29.25 42.69C29.2056 42.7006 29.1594 42.7006 29.115 42.69C29.0704 42.6727 29.0297 42.6466 28.9953 42.6134C28.9608 42.5801 28.9334 42.5403 28.9145 42.4963C28.8957 42.4523 28.8858 42.405 28.8854 42.3571C28.8851 42.3093 28.8943 42.2618 28.9125 42.2175C29.091 41.8246 29.3451 41.4706 29.6604 41.176C29.9757 40.8813 30.3459 40.6516 30.75 40.5C32.3025 39.9075 34.3425 40.245 36.825 41.52C36.912 41.5663 36.9773 41.6449 37.0068 41.739C37.0363 41.833 37.0275 41.9349 36.9825 42.0225C36.9611 42.0651 36.9314 42.103 36.8952 42.134C36.859 42.165 36.817 42.1885 36.7717 42.2031C36.7263 42.2178 36.6785 42.2233 36.631 42.2193C36.5835 42.2154 36.5373 42.202 36.495 42.18C34.245 41.025 32.355 40.68 31.0275 41.1825C30.7027 41.2905 30.4028 41.4622 30.1452 41.6876C29.8877 41.913 29.6777 42.1875 29.5275 42.495C29.4998 42.5471 29.4603 42.5918 29.4121 42.6257C29.3638 42.6596 29.3083 42.6816 29.25 42.69Z" fill="black"/>
<path d="M32.385 40.1775C31.8248 40.1835 31.2705 40.2928 30.75 40.5C30.337 40.6473 29.9576 40.8759 29.6343 41.1721C29.311 41.4684 29.0503 41.8264 28.8675 42.225C28.8493 42.2693 28.8401 42.3167 28.8405 42.3646C28.8408 42.4125 28.8507 42.4598 28.8696 42.5038C28.8884 42.5478 28.9159 42.5876 28.9503 42.6208C28.9847 42.6541 29.0254 42.6802 29.07 42.6975C29.1144 42.708 29.1606 42.708 29.205 42.6975C29.2791 42.6971 29.3513 42.6749 29.4127 42.6335C29.4741 42.5921 29.5219 42.5335 29.55 42.465C29.7002 42.1575 29.9102 41.883 30.1677 41.6576C30.4253 41.4322 30.7253 41.2605 31.05 41.1525C31.4777 40.9971 31.9301 40.9209 32.385 40.9275C33.8384 41.0105 35.2529 41.4289 36.5175 42.15C36.5675 42.1796 36.6245 42.1951 36.6825 42.195C36.7498 42.1948 36.8157 42.1757 36.8727 42.1399C36.9297 42.1041 36.9756 42.053 37.005 41.9925C37.0501 41.9049 37.0588 41.803 37.0293 41.709C36.9998 41.6149 36.9345 41.5363 36.8475 41.49C35.487 40.7144 33.964 40.2675 32.4 40.185L32.385 40.1775ZM38.19 10.1175C38.1931 10.1658 38.1866 10.2142 38.1709 10.26C38.1551 10.3057 38.1306 10.3479 38.0985 10.3842C38.0665 10.4204 38.0276 10.4499 37.9841 10.4711C37.9406 10.4923 37.8933 10.5046 37.845 10.5075C37.7507 10.5038 37.6613 10.4647 37.5946 10.398C37.5278 10.3312 37.4887 10.2418 37.485 10.1475C37.485 9.9108 37.391 9.68379 37.2236 9.51642C37.0562 9.34904 36.8292 9.25501 36.5925 9.25501C36.3558 9.25501 36.1288 9.34904 35.9614 9.51642C35.7941 9.68379 35.7 9.9108 35.7 10.1475C35.7012 10.1964 35.6921 10.245 35.6735 10.2902C35.6548 10.3353 35.627 10.3762 35.5917 10.41C35.5565 10.4439 35.5145 10.47 35.4686 10.4868C35.4227 10.5036 35.3738 10.5106 35.325 10.5075C35.2269 10.5017 35.1349 10.4576 35.069 10.3846C35.0031 10.3117 34.9684 10.2157 34.9725 10.1175C34.9972 9.70287 35.178 9.31295 35.4786 9.02628C35.7791 8.73961 36.1772 8.57747 36.5925 8.57251C37.0067 8.57416 37.4042 8.73585 37.7019 9.02379C37.9997 9.31173 38.1745 9.70362 38.19 10.1175Z" fill="black"/>
<path d="M36.57 8.57247C36.1546 8.57743 35.7566 8.73957 35.456 9.02624C35.1554 9.31291 34.9746 9.70283 34.95 10.1175C34.9459 10.2157 34.9805 10.3116 35.0464 10.3846C35.1124 10.4575 35.2043 10.5017 35.3025 10.5075C35.3503 10.5096 35.3981 10.5017 35.4427 10.4844C35.4874 10.4671 35.5279 10.4406 35.5618 10.4068C35.5956 10.3729 35.6221 10.3324 35.6394 10.2877C35.6567 10.2431 35.6646 10.1953 35.6625 10.1475C35.6625 9.91076 35.7565 9.68375 35.9239 9.51638C36.0913 9.349 36.3183 9.25497 36.555 9.25497C36.7917 9.25497 37.0187 9.349 37.1861 9.51638C37.3534 9.68375 37.4475 9.91076 37.4475 10.1475C37.4512 10.2418 37.4903 10.3312 37.557 10.3979C37.6237 10.4646 37.7132 10.5038 37.8075 10.5075C37.8558 10.5046 37.903 10.4922 37.9465 10.4711C37.99 10.4499 38.0289 10.4203 38.061 10.3841C38.093 10.3479 38.1176 10.3057 38.1333 10.2599C38.149 10.2142 38.1555 10.1657 38.1525 10.1175C38.1369 9.69967 37.9588 9.30446 37.6563 9.01591C37.3537 8.72737 36.9505 8.56827 36.5325 8.57247H36.57Z" fill="black"/>
<path d="M46.815 12.3075C46.4604 13.0613 45.9171 13.7108 45.2378 14.1931C44.5585 14.6753 43.7661 14.9739 42.9375 15.06C42.9933 14.8559 43.0334 14.6478 43.0575 14.4375C43.1613 13.6292 43.1789 12.8121 43.11 12C44.27 12.5365 45.5824 12.6454 46.815 12.3075Z" fill="#28343B"/>
<path d="M46.89 11.88C47.0812 11.7985 47.2623 11.6953 47.43 11.5725C47.433 11.615 47.433 11.6576 47.43 11.7L46.89 11.88Z" fill="black"/>
<path d="M42.66 11.0025C42.59 11.0035 42.5217 11.0246 42.4633 11.0631C42.4048 11.1016 42.3586 11.1561 42.33 11.22C42.3189 11.2643 42.3189 11.3107 42.33 11.355C42.3228 11.3997 42.3228 11.4453 42.33 11.49C42.3644 11.5826 42.431 11.6598 42.5175 11.7075C42.7125 11.805 42.915 11.8875 43.125 11.97C43.8981 12.3044 44.728 12.4877 45.57 12.51C45.9984 12.5142 46.4245 12.4458 46.83 12.3075C46.4754 13.0613 45.9321 13.7108 45.2528 14.1931C44.5735 14.6753 43.7811 14.9739 42.9525 15.06C42.765 15.0975 42.57 15.12 42.375 15.1425C42.3113 15.1494 42.2506 15.1733 42.1992 15.2115C42.1478 15.2497 42.1075 15.301 42.0825 15.36C42.0825 15.36 42.0825 15.36 42.0825 15.3975C42.071 15.4468 42.071 15.4982 42.0825 15.5475C42.0883 15.6383 42.129 15.7234 42.1961 15.7849C42.2632 15.8464 42.3515 15.8796 42.4425 15.8775H42.675C47.235 15.3 47.7975 11.685 47.805 11.6475C47.8171 11.5749 47.8071 11.5003 47.7764 11.4335C47.7456 11.3666 47.6955 11.3105 47.6325 11.2725C47.5762 11.2377 47.5112 11.2195 47.445 11.22C47.3785 11.2131 47.3113 11.2234 47.25 11.25C46.7649 11.595 46.18 11.7715 45.585 11.7525C44.703 11.7148 43.8379 11.4979 43.0425 11.115L42.855 11.0325C42.8056 11.0095 42.752 10.9968 42.6975 10.995L42.66 11.0025ZM40.1925 17.6775H40.245H40.32H40.1925ZM27.795 13.9875L27.3525 13.395C27.3004 13.316 27.2427 13.2408 27.18 13.17L27.4425 13.335L27.2775 13.245L27.795 13.9875Z" fill="black"/>
<path d="M27.18 12.8025C27.111 12.8039 27.0437 12.8242 26.9856 12.8614C26.9274 12.8986 26.8806 12.9511 26.8504 13.0131C26.8201 13.0751 26.8076 13.1443 26.8142 13.213C26.8207 13.2817 26.8461 13.3473 26.8875 13.4025L27.06 13.62C30.6 18.3075 31.8075 22.1925 30.75 25.5C29.25 30.1875 23.3325 34.0125 12.645 37.2H12.5775C12.5312 37.2137 12.4881 37.2365 12.4505 37.2669C12.413 37.2974 12.3819 37.3349 12.3589 37.3774C12.3359 37.4199 12.3215 37.4665 12.3166 37.5146C12.3116 37.5626 12.3162 37.6112 12.33 37.6575C12.3473 37.7149 12.3781 37.7674 12.4199 37.8105C12.4617 37.8535 12.5131 37.8859 12.57 37.905H12.675H12.78C13.3125 37.7475 13.8375 37.59 14.34 37.425C24.345 34.2375 29.94 30.405 31.44 25.695C32.49 22.5 31.5 18.75 28.5 14.3475C33.0825 16.89 36.69 18.045 39.96 18.0525H40.32C40.3693 18.0506 40.4177 18.0389 40.4624 18.0183C40.5072 17.9976 40.5474 17.9684 40.5809 17.9321C40.6143 17.8959 40.6403 17.8534 40.6573 17.8072C40.6743 17.7609 40.682 17.7117 40.68 17.6625C40.6726 17.5676 40.63 17.4789 40.5607 17.4137C40.4913 17.3486 40.4002 17.3116 40.305 17.31H39.96C36.5175 17.31 32.6925 15.975 27.63 13.0125L27.3675 12.8625C27.3115 12.8269 27.2463 12.8087 27.18 12.81V12.8025Z" fill="black"/>
<path d="M25.6275 24C23.3775 28.6425 17.0325 32.5425 6.2925 35.88L5.07 36.255H4.9725H4.86C4.80226 36.2353 4.75023 36.2017 4.7084 36.1573C4.66658 36.1128 4.63623 36.0589 4.62 36C4.60616 35.9537 4.6016 35.9052 4.60655 35.8571C4.61151 35.8091 4.62589 35.7625 4.64888 35.72C4.67187 35.6775 4.70301 35.6399 4.74052 35.6095C4.77803 35.579 4.82118 35.5563 4.86749 35.5425H4.965C16.215 32.1825 22.725 28.3125 24.9675 23.7C26.22 21.15 26.205 18.2925 24.9675 14.7375C24.9225 14.6025 24.87 14.4675 24.8175 14.325C24.7832 14.2345 24.786 14.1341 24.8253 14.0456C24.8647 13.9571 24.9373 13.8878 25.0275 13.8525C25.0728 13.8344 25.1212 13.8255 25.1699 13.8262C25.2187 13.827 25.2668 13.8374 25.3115 13.857C25.3562 13.8765 25.3965 13.9048 25.4302 13.9401C25.4638 13.9754 25.4901 14.017 25.5075 14.0625C25.5075 14.1675 25.5825 14.265 25.6125 14.37C27 18.15 27 21.2175 25.6275 24Z" fill="black"/>
<path d="M25.125 13.785C25.0803 13.7779 25.0347 13.7779 24.99 13.785C24.9435 13.7995 24.9004 13.8231 24.8631 13.8544C24.8258 13.8857 24.7951 13.9241 24.7728 13.9673C24.7504 14.0106 24.7369 14.0579 24.733 14.1064C24.7291 14.1549 24.7349 14.2037 24.75 14.25C24.8025 14.3925 24.855 14.5275 24.9 14.6625C26.175 18.2175 26.19 21.075 24.9 23.6625C22.65 28.275 16.11 32.145 4.89749 35.505H4.79999C4.75368 35.5188 4.71053 35.5415 4.67302 35.572C4.63551 35.6024 4.60437 35.64 4.58138 35.6825C4.55839 35.7249 4.54401 35.7716 4.53905 35.8196C4.53409 35.8677 4.53866 35.9162 4.55249 35.9625C4.56978 36.02 4.6006 36.0724 4.64236 36.1155C4.68412 36.1586 4.73561 36.191 4.79249 36.21H4.90499H5.00249L6.22499 35.835C17.0325 32.5275 23.37 28.6275 25.6275 24C27 21.2175 27 18.15 25.575 14.325C25.575 14.22 25.5075 14.1225 25.47 14.0175C25.4419 13.949 25.3941 13.8904 25.3327 13.849C25.2713 13.8077 25.199 13.7854 25.125 13.785Z" fill="black"/>
</svg>
