<svg width="48" height="48" viewBox="0 0 48 48" fill="none" xmlns="http://www.w3.org/2000/svg">
<path d="M41.8761 35.5213C43.6862 35.1428 44.8469 33.3684 44.4687 31.5581C44.0902 29.7477 42.3158 28.5872 40.5055 28.9655L6.12421 36.1525L7.49464 42.7085L41.8761 35.5213Z" fill="#63321A"/>
<path d="M6.80926 42.7793C8.65872 42.7793 10.158 41.2801 10.158 39.4306C10.158 37.5811 8.65872 36.0818 6.80926 36.0818C4.9598 36.0818 3.46051 37.5811 3.46051 39.4306C3.46051 41.2801 4.9598 42.7793 6.80926 42.7793Z" fill="#4A1F13"/>
<path d="M6.12385 35.5213C4.31373 35.1428 3.15301 33.3684 3.5312 31.5581C3.90976 29.7477 5.68407 28.5872 7.49448 28.9655L41.8762 36.1526L40.5055 42.7086L6.12385 35.5213Z" fill="#783A1B"/>
<path d="M41.1911 42.7792C43.0405 42.7792 44.5397 41.28 44.5397 39.4306C44.5397 37.5812 43.0405 36.0819 41.1911 36.0819C39.3417 36.0819 37.8424 37.5812 37.8424 39.4306C37.8424 41.28 39.3417 42.7792 41.1911 42.7792Z" fill="#63321A"/>
<path d="M25.8232 33.5126C21.968 33.5126 15.2783 34.274 13.0225 25.7945C13.0225 25.7945 14.0417 26.8675 14.4901 26.7858C14.9386 26.7042 12.2888 18.7955 17.874 14.8819C17.874 14.8819 17.935 17.1648 18.9337 17.4502C19.0564 17.5318 18.2001 7.82913 29.9002 5.21997C27.2499 10.0711 30.6341 12.8841 31.9792 19.8149C32.4683 17.6947 33.2027 17.4502 34.0586 16.7979C33.9779 28.0277 39.1416 31.6152 25.8232 33.5126Z" fill="#F15C22"/>
<path d="M25.081 32.9809C22.7951 32.9809 18.8286 33.4324 17.4909 28.4045C17.4909 28.4045 18.0952 29.0407 18.3611 28.9923C18.6271 28.9439 17.0559 24.2546 20.3677 21.934C20.3677 21.934 20.4038 23.2875 20.9961 23.4568C21.0686 23.5052 20.5611 17.752 27.4986 16.2049C25.927 19.0813 27.9337 20.7493 28.7313 24.859C29.0212 23.6018 29.4566 23.4568 29.9641 23.07C29.9163 29.7285 32.9782 31.8558 25.081 32.9809Z" fill="#FBB417"/>
</svg>
