<svg width="48" height="48" viewBox="0 0 48 48" fill="none" xmlns="http://www.w3.org/2000/svg">
<g clip-path="url(#clip0_129_87)">
<path d="M22.5844 8.6251L25.6875 6.27197L26.3906 8.01572L31.125 8.33447L27.4031 10.7157L29.5406 15.5813L24.675 13.4438L22.2938 17.1563L21.9844 12.4313L20.2313 11.7188L22.5844 8.6251Z" fill="#FFC971"/>
<path d="M22.5844 8.625L24.2813 10.125L26.85 9.42188L27.4031 10.7156L29.5406 15.5812L24.675 13.4437L22.2938 17.1562L21.9844 12.4313L20.2313 11.7188L22.5844 8.625Z" fill="#F8961E"/>
<path d="M31.3312 33.1312L32.9625 31.2469L34.3594 32.25L35.775 29.2406L38.1 31.5656L39.0094 30.6562L42.3844 32.1375L40.9031 28.7625L41.8125 27.8531L39.4875 25.5281L42.5812 24.0281L41.7937 22.5281L43.3687 21.0844L41.2875 21.5531L40.6687 20.3812L38.1094 21.8438L37.1437 19.4531L33.8344 23.5875L29.6906 26.8969L32.0906 27.8625L30.4219 30.6844L31.8375 30.7031L31.3312 33.1312Z" fill="#FFC971"/>
<path d="M31.3312 33.1312L32.9625 31.2468L34.3594 32.2499L35.775 29.2405L38.1 31.5655L39.0094 30.6562L42.3844 32.1374L40.9031 28.7624L41.8125 27.853L39.4875 25.528L38.7562 23.8405L35.1 24.7499L33.8344 23.5874L29.6906 26.8968L32.0906 27.8624L30.4219 30.6843L31.8375 30.703L31.3312 33.1312Z" fill="#F8961E"/>
<path d="M1.52814 32.2407L3.41251 33.8813L2.40939 35.2782L5.41876 36.6845L3.09376 39.0095L4.00314 39.9188L2.52189 43.2938L5.89689 41.8126L6.80626 42.722L9.13126 40.397L10.6313 43.4907L12.1313 42.7032L13.575 44.2876L13.0969 42.197L14.2781 41.5782L12.8156 39.0188L15.2063 38.0532L11.0719 34.7438L7.76251 30.6001L6.79689 33.0001L3.97501 31.3313L3.95626 32.747L1.52814 32.2407Z" fill="#FFC971"/>
<path d="M1.52814 32.2407L3.41251 33.8813L2.40939 35.2782L5.41876 36.6845L3.09376 39.0095L4.00314 39.9188L7.27501 38.5407L11.0719 34.7438L7.76251 30.6001L6.79689 33.0001L3.97501 31.3313L3.95626 32.747L1.52814 32.2407Z" fill="#F8961E"/>
<path d="M13.1906 19.95H0V19.0125H13.1906C14.7375 19.0125 16.0031 17.7468 16.0031 16.2C16.0031 14.6531 14.7375 13.3875 13.1906 13.3875C11.6438 13.3875 10.3781 14.6531 10.3781 16.2H9.44063C9.44063 14.1281 11.1188 12.45 13.1906 12.45C15.2625 12.45 16.9406 14.1281 16.9406 16.2C16.9406 18.2718 15.2531 19.95 13.1906 19.95ZM17.6625 31.4812C15.3375 31.4812 13.4438 29.5874 13.4438 27.2624H14.3813C14.3813 29.0718 15.8531 30.5437 17.6625 30.5437C19.4719 30.5437 20.9438 29.0718 20.9438 27.2624C20.9438 25.4531 19.4719 23.9812 17.6625 23.9812H2.5875V23.0437H17.6625C19.9875 23.0437 21.8813 24.9374 21.8813 27.2624C21.8813 29.5874 19.9875 31.4812 17.6625 31.4812Z" fill="#F8961E"/>
<path d="M26.4227 11.8108L20.1915 5.57935L19.5285 6.24225L25.7598 12.4737L26.4227 11.8108Z" fill="#B1614A"/>
<path d="M23.9156 13.0312L23.0156 12.7874L23.7469 10.1155C23.7938 9.95615 23.9156 9.83428 24.075 9.7874L26.7469 9.05615L26.9906 9.95615L24.5719 10.6218L23.9156 13.0312Z" fill="#B1614A"/>
<path d="M37.9662 27.0597L32.199 21.2922L31.5361 21.9551L37.3033 27.7226L37.9662 27.0597Z" fill="#B1614A"/>
<path d="M34.5656 28.6406L33.6656 28.3968L34.6688 24.75C34.7156 24.5906 34.8375 24.4687 34.9969 24.4218L38.6438 23.4187L38.8875 24.3187L35.4938 25.2468L34.5656 28.6406Z" fill="#B1614A"/>
<path d="M13.3659 33.1092L12.7031 32.4463L6.93532 38.2132L7.59819 38.8762L13.3659 33.1092Z" fill="#B1614A"/>
<path d="M10.3406 39.7968L9.41249 36.4031L6.01874 35.475L6.26249 34.575L9.90936 35.5781C10.0687 35.625 10.1906 35.7468 10.2375 35.9062L11.2406 39.5531L10.3406 39.7968Z" fill="#B1614A"/>
<path d="M47.2032 7.65007L47.25 7.63132L47.2688 7.58444C48.5063 4.27507 45.2438 1.05944 41.9438 2.33444C40.6688 5.62507 43.8844 8.88757 47.2032 7.65007Z" fill="#F8D707"/>
<path d="M47.2032 7.64995L47.25 7.6312L41.9438 2.32495C40.6688 5.62495 43.8844 8.88745 47.2032 7.64995Z" fill="#EDA900"/>
<path d="M44.9295 4.70341L40.6869 0.460693L40.024 1.12359L44.2665 5.36631L44.9295 4.70341Z" fill="#B1614A"/>
<path d="M33.9187 47.2687L33.9656 47.25L33.9844 47.2031C35.2219 43.8937 31.9594 40.6781 28.6594 41.9531C27.3937 45.2437 30.6094 48.4968 33.9187 47.2687Z" fill="#F8D707"/>
<path d="M33.9187 47.2688L33.9656 47.2501L28.6594 41.9438C27.3937 45.2438 30.6094 48.497 33.9187 47.2688Z" fill="#EDA900"/>
<path d="M31.7114 44.3228L27.4688 40.0801L26.8059 40.743L31.0485 44.9857L31.7114 44.3228Z" fill="#B1614A"/>
<path d="M17.4469 2.96253L17.4656 2.91566L17.4469 2.86878C15.975 -0.346842 11.4 -0.318717 9.96564 2.91566C11.4 6.15003 15.9844 6.17816 17.4469 2.96253Z" fill="#F8D707"/>
<path d="M17.4469 2.9624L17.4656 2.91553H9.96564C11.4 6.1499 15.9844 6.17803 17.4469 2.9624Z" fill="#EDA900"/>
<path d="M13.7812 2.4375H7.78125V3.375H13.7812V2.4375Z" fill="#B1614A"/>
<path d="M20.4094 38.2781L20.4281 38.3156L20.4656 38.3343C23.1094 39.3187 25.6781 36.7218 24.6563 34.0874C22.0219 33.0656 19.425 35.6343 20.4094 38.2781ZM34.4438 14.9999L34.4625 15.0374L34.5 15.0562C37.1438 16.0406 39.7125 13.4437 38.6906 10.8093C36.0656 9.78744 33.4594 12.3562 34.4438 14.9999Z" fill="#F8961E"/>
<path d="M43.8938 44.6626L43.9313 44.6438L43.95 44.6063C44.9344 41.9626 42.3375 39.3938 39.7031 40.4157C38.6813 43.0501 41.25 45.647 43.8938 44.6626ZM7.5094 12.3938L7.5469 12.3751L7.56565 12.3376C8.55002 9.69384 5.95315 7.12509 3.31877 8.14696C2.2969 10.7813 4.86565 13.3782 7.5094 12.3938Z" fill="#F8D707"/>
<path d="M13.1906 19.95H0V19.0125H13.1906C14.7375 19.0125 16.0031 17.7468 16.0031 16.2C16.0031 14.6531 14.7375 13.3875 13.1906 13.3875C11.6438 13.3875 10.3781 14.6531 10.3781 16.2H9.44063C9.44063 14.1281 11.1188 12.45 13.1906 12.45C15.2625 12.45 16.9406 14.1281 16.9406 16.2C16.9406 18.2718 15.2531 19.95 13.1906 19.95ZM17.6625 31.4812C15.3375 31.4812 13.4438 29.5874 13.4438 27.2624H14.3813C14.3813 29.0718 15.8531 30.5437 17.6625 30.5437C19.4719 30.5437 20.9438 29.0718 20.9438 27.2624C20.9438 25.4531 19.4719 23.9812 17.6625 23.9812H2.5875V23.0437H17.6625C19.9875 23.0437 21.8813 24.9374 21.8813 27.2624C21.8813 29.5874 19.9875 31.4812 17.6625 31.4812Z" fill="#060D1A"/>
<path d="M26.4227 11.8108L20.1915 5.57935L19.5285 6.24225L25.7598 12.4737L26.4227 11.8108Z" fill="#060D1A"/>
<path d="M22.2938 17.6249C22.2563 17.6249 22.2188 17.6155 22.1813 17.6062C21.9844 17.5593 21.8437 17.3812 21.8344 17.1843L21.5344 12.7499L20.0531 12.1499C19.9219 12.0937 19.8188 11.9812 19.7813 11.8405C19.7438 11.6999 19.7719 11.5499 19.8563 11.4374L22.2094 8.33429C22.2375 8.29679 22.2656 8.26866 22.3031 8.24054L25.4063 5.88741C25.5188 5.80304 25.6687 5.76554 25.8094 5.81241C25.95 5.84991 26.0625 5.95304 26.1188 6.08429L26.7188 7.56554L31.1531 7.86554C31.3594 7.87491 31.5281 8.02491 31.575 8.21241C31.6219 8.40929 31.5469 8.61554 31.3781 8.72804L27.9938 10.8937L29.9719 15.3937C30.0469 15.5718 30.0094 15.778 29.8781 15.9093C29.7375 16.0499 29.5313 16.0874 29.3625 16.003L24.8625 14.0249L22.6875 17.4093C22.6031 17.5499 22.4531 17.6249 22.2938 17.6249ZM20.9719 11.5218L22.1531 11.9999C22.3219 12.0655 22.4344 12.2249 22.4437 12.403L22.6688 15.7124L24.2813 13.1905C24.4031 12.9937 24.6563 12.9187 24.8625 13.0124L28.6313 14.6718L26.9719 10.903C26.8781 10.6874 26.9531 10.4437 27.15 10.3218L29.6719 8.70929L26.3625 8.48429C26.1844 8.47491 26.025 8.36241 25.9594 8.19366L25.4812 7.01241L22.9219 8.96241L20.9719 11.5218Z" fill="#060D1A"/>
<path d="M23.9156 13.0312L23.0156 12.7874L23.7469 10.1155C23.7938 9.95615 23.9156 9.83428 24.075 9.7874L26.7469 9.05615L26.9906 9.95615L24.5719 10.6218L23.9156 13.0312Z" fill="#060D1A"/>
<path d="M37.9662 27.0594L32.199 21.292L31.5361 21.9549L37.3033 27.7223L37.9662 27.0594Z" fill="#060D1A"/>
<path d="M34.5656 28.6406L33.6656 28.3968L34.6688 24.75C34.7156 24.5906 34.8375 24.4687 34.9969 24.4218L38.6438 23.4187L38.8875 24.3187L35.4938 25.2468L34.5656 28.6406Z" fill="#060D1A"/>
<path d="M31.3219 33.6C31.2469 33.6 31.1813 33.5812 31.1156 33.5531C30.9281 33.4594 30.825 33.2437 30.8625 33.0375L31.2563 31.1719L30.4219 31.1625C30.2531 31.1625 30.1031 31.0687 30.0188 30.9281C29.9344 30.7781 29.9344 30.6 30.0188 30.4594L31.4063 28.1062L29.5125 27.3375C29.3625 27.2719 29.25 27.1312 29.2219 26.9719C29.1938 26.8031 29.2594 26.6437 29.3906 26.5406L33.4875 23.2594L36.7594 19.1625C36.8625 19.0312 37.0313 18.9656 37.1906 18.9937C37.3594 19.0219 37.4906 19.125 37.5563 19.2844L38.325 21.1781L40.4156 19.9781C40.5281 19.9125 40.6594 19.9031 40.7813 19.9312C40.9031 19.9687 41.0063 20.0531 41.0625 20.1656L41.5125 21.0281L43.2469 20.6344C43.4531 20.5875 43.6688 20.6812 43.7625 20.8781C43.8656 21.0656 43.8188 21.3 43.6594 21.4406L42.3469 22.6406L42.9656 23.8219C43.0219 23.9344 43.0313 24.0656 42.9938 24.1875C42.9563 24.3094 42.8625 24.4031 42.75 24.4594L40.2469 25.6687L42.1031 27.525C42.1875 27.6094 42.2438 27.7312 42.2438 27.8531C42.2438 27.975 42.1969 28.0969 42.1031 28.1812L41.4188 28.8656L42.7688 31.9406C42.8438 32.1187 42.8063 32.325 42.675 32.4562C42.5344 32.5969 42.3281 32.6344 42.1594 32.55L39.0844 31.2L38.4 31.8844C38.2125 32.0719 37.9219 32.0719 37.7344 31.8844L35.8781 30.0281L34.7531 32.4375C34.6969 32.5594 34.5844 32.6531 34.4438 32.6906C34.3125 32.7281 34.1625 32.7 34.05 32.6156L33 31.8562L31.6406 33.4219C31.5844 33.5437 31.4625 33.6 31.3219 33.6ZM32.9625 30.7781C33.0563 30.7781 33.15 30.8062 33.2344 30.8625L34.1719 31.5375L35.3438 29.0344C35.4094 28.8937 35.5406 28.8 35.6906 28.7719C35.8406 28.7437 35.9906 28.7906 36.1031 28.9031L38.1 30.9L38.6813 30.3187C38.8219 30.1781 39.0281 30.1406 39.1969 30.225L41.4656 31.2187L40.4719 28.95C40.3969 28.7719 40.4344 28.5656 40.5656 28.4344L41.1469 27.8531L39.15 25.8562C39.0469 25.7531 38.9906 25.5937 39.0188 25.4437C39.0469 25.2937 39.1406 25.1625 39.2813 25.0969L41.9438 23.8125L41.3813 22.7344C41.2781 22.5469 41.325 22.3125 41.4844 22.1719L41.7563 21.9187L41.3906 22.0031C41.1844 22.05 40.9688 21.9562 40.875 21.7594L40.4813 21.0094L38.3438 22.2281C38.2219 22.2937 38.0813 22.3125 37.9594 22.2656C37.8281 22.2187 37.725 22.125 37.6781 22.0031L37.0125 20.3531L34.2 23.8687C34.1813 23.8969 34.1531 23.925 34.125 23.9437L30.6094 26.7562L32.2594 27.4219C32.3813 27.4687 32.4844 27.5812 32.5313 27.7031C32.5781 27.8344 32.5594 27.975 32.4938 28.0875L31.2469 30.2062L31.8469 30.2156C31.9875 30.2156 32.1188 30.2812 32.2031 30.3937C32.2875 30.5062 32.325 30.6469 32.2969 30.7875L32.1563 31.4531L32.6156 30.9281C32.7094 30.825 32.8313 30.7781 32.9625 30.7781Z" fill="#060D1A"/>
<path d="M13.3659 33.1092L12.7031 32.4463L6.93532 38.2132L7.59819 38.8762L13.3659 33.1092Z" fill="#060D1A"/>
<path d="M10.3406 39.7968L9.41249 36.4031L6.01874 35.475L6.26249 34.575L9.90936 35.5781C10.0687 35.625 10.1906 35.7468 10.2375 35.9062L11.2406 39.5531L10.3406 39.7968Z" fill="#060D1A"/>
<path d="M44.9295 4.70316L40.6869 0.460449L40.024 1.12335L44.2665 5.36606L44.9295 4.70316Z" fill="#060D1A"/>
<path d="M32.475 47.9998C31.2844 47.9998 30.1312 47.5311 29.25 46.6311C27.9656 45.3373 27.5812 43.4717 28.2375 41.7748C28.2844 41.6529 28.3781 41.5498 28.5094 41.5029C30.2062 40.8467 32.0719 41.2311 33.3656 42.5154C34.6594 43.7998 35.0719 45.6561 34.4344 47.3623L34.4156 47.4092C34.3687 47.5404 34.2656 47.6342 34.1437 47.6811L34.0969 47.6998C33.5531 47.9061 33.0094 47.9998 32.475 47.9998ZM29.0344 42.3092C28.6125 43.6029 28.9406 44.9904 29.9062 45.9748C30.8812 46.9686 32.2875 47.3061 33.6 46.8842C34.0219 45.5717 33.6844 44.1654 32.6906 43.1904C31.7156 42.2154 30.3281 41.8873 29.0344 42.3092Z" fill="#060D1A"/>
<path d="M31.7114 44.3228L27.4688 40.0801L26.8059 40.743L31.0485 44.9857L31.7114 44.3228Z" fill="#060D1A"/>
<path d="M13.725 5.82178C13.7156 5.82178 13.7063 5.82178 13.6969 5.82178C11.8781 5.8124 10.2844 4.7624 9.54377 3.10303C9.48752 2.98115 9.48752 2.84053 9.54377 2.72803C10.2844 1.05928 11.8688 0.0186523 13.6969 0.00927734C13.7063 0.00927734 13.7156 0.00927734 13.725 0.00927734C15.5344 0.00927734 17.1281 1.03115 17.8781 2.68115L17.8969 2.72803C17.9531 2.8499 17.9531 2.99053 17.8969 3.12178L17.8781 3.16865C17.1281 4.7999 15.5344 5.82178 13.725 5.82178ZM10.4906 2.91553C11.1094 4.1249 12.3188 4.88428 13.6969 4.89365C13.7063 4.89365 13.7156 4.89365 13.725 4.89365C15.1125 4.89365 16.3313 4.14365 16.95 2.91553C16.3313 1.6874 15.1125 0.937402 13.725 0.937402C13.7156 0.937402 13.7063 0.937402 13.6969 0.937402C12.3188 0.946777 11.1094 1.69678 10.4906 2.91553Z" fill="#060D1A"/>
<path d="M13.7812 2.4375H7.78125V3.375H13.7812V2.4375Z" fill="#060D1A"/>
<path d="M21.6187 39.0092C21.1781 39.0092 20.7281 38.9342 20.2969 38.7654L20.2594 38.7467C20.1281 38.6998 20.0344 38.5967 19.9875 38.4748L19.9687 38.4373C19.4531 37.0404 19.7812 35.5217 20.85 34.4717C21.9094 33.4217 23.4375 33.1029 24.825 33.6467C24.9469 33.6936 25.05 33.7873 25.0969 33.9186C25.6313 35.3061 25.3219 36.8342 24.2719 37.8936C23.5406 38.6248 22.5937 39.0092 21.6187 39.0092ZM20.7844 37.9498C21.7875 38.2592 22.8469 37.9873 23.5875 37.2373C24.3187 36.4967 24.5812 35.4467 24.2719 34.4529C23.2875 34.1529 22.2375 34.4061 21.4875 35.1373C20.7469 35.8873 20.4844 36.9467 20.7844 37.9498ZM35.6625 15.7311C35.2219 15.7311 34.7719 15.6561 34.3406 15.4873L34.3031 15.4686C34.1719 15.4217 34.0781 15.3186 34.0312 15.1967L34.0125 15.1592C33.4969 13.7623 33.825 12.2436 34.8938 11.1936C35.9531 10.1436 37.4813 9.82481 38.8688 10.3686C38.9906 10.4154 39.0938 10.5092 39.1406 10.6404C39.675 12.0279 39.3656 13.5561 38.3156 14.6154C37.5844 15.3467 36.6375 15.7311 35.6625 15.7311ZM34.8281 14.6717C35.8312 14.9811 36.8906 14.7092 37.6312 13.9592C38.3625 13.2186 38.625 12.1686 38.3156 11.1748C37.3313 10.8748 36.2812 11.1279 35.5312 11.8592C34.7906 12.6092 34.5281 13.6686 34.8281 14.6717ZM42.7312 45.3467C41.7562 45.3467 40.8094 44.9623 40.0875 44.2311C39.0375 43.1717 38.7187 41.6436 39.2625 40.2561C39.3094 40.1342 39.4031 40.0311 39.5344 39.9842C40.9219 39.4498 42.45 39.7592 43.5094 40.8092C44.5688 41.8592 44.9062 43.3779 44.3906 44.7748L44.3719 44.8123C44.325 44.9436 44.2219 45.0373 44.1 45.0842L44.0625 45.1029C43.6219 45.2623 43.1719 45.3467 42.7312 45.3467ZM40.0687 40.7811C39.7687 41.7654 40.0219 42.8154 40.7531 43.5654C41.4938 44.3154 42.5625 44.5873 43.5563 44.2779C43.8656 43.2748 43.5938 42.2154 42.8438 41.4748C42.1031 40.7342 41.0531 40.4811 40.0687 40.7811ZM6.34687 13.0779C5.37187 13.0779 4.425 12.6936 3.70312 11.9623C2.65312 10.8936 2.34375 9.37481 2.87812 7.97793C2.925 7.85606 3.01875 7.75293 3.15 7.70606C4.5375 7.17168 6.06562 7.48106 7.125 8.53106C8.18437 9.58106 8.52187 11.0998 8.00625 12.4967L7.9875 12.5342C7.94062 12.6654 7.8375 12.7592 7.71562 12.8061L7.67812 12.8248C7.2375 12.9936 6.7875 13.0779 6.34687 13.0779ZM3.68437 8.52168C3.38437 9.50606 3.6375 10.5561 4.36875 11.3061C5.10937 12.0561 6.17812 12.3279 7.17187 12.0186C7.48125 11.0154 7.20937 9.95606 6.45937 9.21543C5.71875 8.46543 4.66875 8.21231 3.68437 8.52168ZM13.575 44.7561C13.4437 44.7561 13.3219 44.6998 13.2281 44.6061L12.0281 43.2936L10.8469 43.9123C10.7344 43.9686 10.6031 43.9779 10.4812 43.9404C10.3594 43.9029 10.2656 43.8092 10.2094 43.6967L9 41.1936L7.14375 43.0498C6.95625 43.2373 6.66562 43.2373 6.47812 43.0498L5.79375 42.3654L2.71875 43.7154C2.54062 43.7904 2.33437 43.7529 2.20312 43.6217C2.0625 43.4811 2.025 43.2748 2.10937 43.1061L3.45937 40.0311L2.775 39.3467C2.69062 39.2623 2.63437 39.1404 2.63437 39.0186C2.63437 38.8967 2.68125 38.7748 2.775 38.6904L4.63125 36.8342L2.22187 35.7092C2.1 35.6529 2.00625 35.5404 1.96875 35.3998C1.93125 35.2686 1.95937 35.1186 2.04375 35.0061L2.80312 33.9561L1.2375 32.5967C1.07812 32.4561 1.03125 32.2217 1.125 32.0342C1.21875 31.8467 1.43437 31.7436 1.64062 31.7811L3.50625 32.1748L3.51562 31.3404C3.51562 31.1717 3.60937 31.0217 3.75 30.9373C3.9 30.8529 4.07812 30.8529 4.21875 30.9373L6.5625 32.3154L7.33125 30.4217C7.39687 30.2717 7.5375 30.1592 7.69687 30.1311C7.86562 30.1029 8.025 30.1686 8.12812 30.2998L11.4375 34.4436L10.7062 35.0248L7.89375 31.5092L7.22812 33.1592C7.18125 33.2811 7.06875 33.3842 6.94687 33.4311C6.81562 33.4779 6.675 33.4592 6.5625 33.3936L4.44375 32.1467L4.43437 32.7467C4.43437 32.8873 4.36875 33.0186 4.25625 33.1029C4.14375 33.1873 4.00312 33.2248 3.8625 33.1967L3.19687 33.0561L3.72187 33.5154C3.9 33.6748 3.9375 33.9467 3.79687 34.1436L3.12187 35.0811L5.625 36.2529C5.76562 36.3186 5.85937 36.4498 5.8875 36.5998C5.91562 36.7498 5.86875 36.8998 5.75625 37.0123L3.75937 39.0092L4.34062 39.5904C4.48125 39.7311 4.51875 39.9373 4.43437 40.1061L3.44062 42.3748L5.70937 41.3811C5.8875 41.3061 6.09375 41.3436 6.225 41.4748L6.80625 42.0561L8.80312 40.0592C8.90625 39.9561 9.06562 39.8998 9.21562 39.9279C9.36562 39.9561 9.49687 40.0498 9.5625 40.1904L10.8469 42.8529L11.925 42.2904C12.1125 42.1873 12.3469 42.2342 12.4875 42.3936L12.7312 42.6654L12.6469 42.2998C12.6 42.0936 12.6937 41.8779 12.8906 41.7842L13.6406 41.3904L12.4219 39.2529C12.3562 39.1311 12.3375 38.9904 12.3844 38.8686C12.4312 38.7373 12.525 38.6342 12.6469 38.5873L14.2969 37.9217L12.6469 36.6092L13.2281 35.8779L15.5062 37.6967C15.6375 37.7998 15.7031 37.9686 15.675 38.1279C15.6469 38.2967 15.5437 38.4279 15.3844 38.4936L13.4906 39.2623L14.6906 41.3529C14.7562 41.4654 14.7656 41.5967 14.7375 41.7186C14.7 41.8404 14.6156 41.9436 14.5031 41.9998L13.6406 42.4498L14.0344 44.1842C14.0812 44.3904 13.9875 44.6061 13.7906 44.6998C13.725 44.7373 13.65 44.7561 13.575 44.7561ZM45.75 8.38106C44.9156 8.38106 44.0906 8.14668 43.3594 7.69668C42.15 6.93731 41.3438 5.64356 41.2125 4.24668L42.15 4.16231C42.2531 5.26856 42.9 6.29981 43.8656 6.89981C44.7844 7.47168 45.8531 7.60293 46.8844 7.26543C47.3063 5.95293 46.9687 4.54668 45.975 3.57168C44.9437 2.54981 43.4625 2.24981 42.1125 2.76543L41.775 1.89356C43.4719 1.23731 45.3375 1.62168 46.6312 2.90606C47.925 4.19043 48.3375 6.04668 47.7 7.75293L47.6813 7.79981C47.6344 7.93106 47.5313 8.02481 47.4094 8.07168L47.3625 8.09043C46.8375 8.28731 46.2938 8.38106 45.75 8.38106Z" fill="#060D1A"/>
</g>
<defs>
<clipPath id="clip0_129_87">
<rect width="48" height="48" fill="white"/>
</clipPath>
</defs>
</svg>
