<svg width="115" height="32" viewBox="0 0 115 32" fill="none" xmlns="http://www.w3.org/2000/svg">
<path d="M0.727061 20.3573C1.12549 20.3573 1.45401 20.0288 1.45401 19.6305V12.3625C1.45401 11.9642 1.12549 11.6357 0.727061 11.6357C0.328635 11.6357 0.000109512 11.9642 0.000109512 12.3625V19.6305C-0.00688041 20.0358 0.321645 20.3573 0.727061 20.3573Z" fill="black"/>
<path d="M5.0888 26.1785C5.48723 26.1785 5.81575 25.85 5.81575 25.4517V6.54101C5.81575 6.14267 5.48723 5.81421 5.0888 5.81421C4.69037 5.81421 4.36185 6.14267 4.36185 6.54101V25.4517C4.36185 25.85 4.68338 26.1785 5.0888 26.1785Z" fill="black"/>
<path d="M9.45049 32C9.84892 32 10.1774 31.6715 10.1774 31.2732V0.726796C10.1774 0.328455 9.84892 0 9.45049 0C9.05207 0 8.72354 0.328455 8.72354 0.726796V31.2732C8.72354 31.6715 9.05207 32 9.45049 32Z" fill="black"/>
<path d="M13.8192 30.5392C14.2177 30.5392 14.5462 30.2107 14.5462 29.8124V2.18016C14.5462 1.78182 14.2177 1.45337 13.8192 1.45337C13.4208 1.45337 13.0923 1.78182 13.0923 2.18016V29.8194C13.0923 30.2177 13.4138 30.5392 13.8192 30.5392Z" fill="black"/>
<path d="M18.1809 24.7249C18.5794 24.7249 18.9079 24.3965 18.9079 23.9981V7.99462C18.9079 7.59628 18.5794 7.26782 18.1809 7.26782C17.7825 7.26782 17.454 7.59628 17.454 7.99462V23.9981C17.454 24.3965 17.7825 24.7249 18.1809 24.7249Z" fill="black"/>
<path d="M22.5496 30.5392C22.9481 30.5392 23.2766 30.2107 23.2766 29.8124V2.18016C23.2766 1.78182 22.9481 1.45337 22.5496 1.45337C22.1512 1.45337 21.8227 1.78182 21.8227 2.18016V29.8194C21.8227 30.2177 22.1442 30.5392 22.5496 30.5392Z" fill="black"/>
<path d="M26.9113 24.7249C27.3098 24.7249 27.6383 24.3965 27.6383 23.9981V7.99462C27.6383 7.59628 27.3098 7.26782 26.9113 7.26782C26.5129 7.26782 26.1844 7.59628 26.1844 7.99462V23.9981C26.1844 24.3965 26.5129 24.7249 26.9113 24.7249Z" fill="black"/>
<path d="M31.2731 20.3573C31.6715 20.3573 32 20.0288 32 19.6305V12.3625C32 11.9642 31.6715 11.6357 31.2731 11.6357C30.8747 11.6357 30.5461 11.9642 30.5461 12.3625V19.6305C30.5461 20.0358 30.8747 20.3573 31.2731 20.3573Z" fill="black"/>
<path d="M57.25 9.95C57.25 9.46667 57.3583 9.05 57.575 8.7C57.8083 8.33333 58.15 8.15 58.6 8.15C58.9833 8.15 59.325 8.225 59.625 8.375C59.925 8.525 60.075 8.775 60.075 9.125C60.075 9.80833 60.0417 10.7667 59.975 12C59.9083 13.2 59.875 14.0917 59.875 14.675C59.875 15.5917 59.9083 16.8167 59.975 18.35C60.0417 19.8167 60.075 20.8917 60.075 21.575C60.075 22.125 60.0667 22.5333 60.05 22.8C60.05 23.0667 59.9 23.3333 59.6 23.6C59.3167 23.85 58.875 23.975 58.275 23.975C57.9583 23.975 57.6833 23.925 57.45 23.825C57.2333 23.7083 57.0833 23.5833 57 23.45C56.2167 22.5 55.075 20.8833 53.575 18.6C51.8917 16.05 50.5167 14.1 49.45 12.75C49.5833 13.95 49.65 15.4167 49.65 17.15C49.65 17.9167 49.6333 18.9167 49.6 20.15C49.5833 21.3667 49.55 22.1667 49.5 22.55C49.4333 23.0333 49.2833 23.4083 49.05 23.675C48.8333 23.925 48.4833 24.05 48 24.05C47.6333 24.05 47.3583 23.95 47.175 23.75C47.0083 23.5333 46.9083 23.1667 46.875 22.65C46.8583 21.9667 46.9 20.9417 47 19.575C47.0167 19.3583 47.0417 18.9833 47.075 18.45C47.1083 17.9167 47.125 17.4417 47.125 17.025C47.125 15.875 47.0667 14.5583 46.95 13.075C46.85 11.4417 46.8 10.2333 46.8 9.45C46.8 9.05 46.9417 8.74167 47.225 8.525C47.525 8.30833 47.8667 8.2 48.25 8.2C48.5833 8.2 48.9333 8.28333 49.3 8.45C50.7333 10.25 52.675 12.9333 55.125 16.5L57.475 20.1C57.4917 19.8333 57.5 19.4583 57.5 18.975C57.5 18.125 57.4833 17.2083 57.45 16.225C57.4167 15.2417 57.3917 14.575 57.375 14.225C57.2917 12.6083 57.25 11.1833 57.25 9.95ZM73.0951 15.975C73.2285 16.2083 73.3368 16.55 73.4201 17C73.5035 17.4333 73.5451 17.825 73.5451 18.175C73.5451 18.825 73.4035 19.75 73.1201 20.95C71.9701 23.05 70.2701 24.1 68.0201 24.1C67.1868 24.1 66.3368 23.825 65.4701 23.275C64.6035 22.725 64.0035 22.0917 63.6701 21.375C63.2201 19.9417 62.9951 19.0333 62.9951 18.65C62.9951 17.9833 63.1368 17.275 63.4201 16.525C63.7201 15.775 64.0951 15.125 64.5451 14.575C64.8285 14.1917 65.3368 13.8667 66.0701 13.6C66.8035 13.3167 67.4701 13.175 68.0701 13.175C69.2368 13.175 70.2285 13.4 71.0451 13.85C71.8618 14.2833 72.5451 14.9917 73.0951 15.975ZM70.9201 20C71.0035 19.7833 71.0451 19.225 71.0451 18.325C71.0451 17.8417 70.9535 17.3667 70.7701 16.9C70.6035 16.4333 70.3535 16.0333 70.0201 15.7C69.9868 15.6667 69.8951 15.6167 69.7451 15.55C69.5951 15.4667 69.3868 15.3917 69.1201 15.325C68.8701 15.2417 68.5785 15.2 68.2451 15.2C67.3118 15.2 66.6285 15.575 66.1951 16.325C65.7618 17.075 65.5451 17.925 65.5451 18.875C65.5451 19.0417 65.5868 19.3583 65.6701 19.825C65.7701 20.2917 65.8535 20.5833 65.9201 20.7C65.9701 20.8167 66.0951 20.9833 66.2951 21.2C66.5118 21.4 66.7701 21.5833 67.0701 21.75C67.3868 21.9 67.7118 21.975 68.0451 21.975C68.7951 21.975 69.3951 21.8 69.8451 21.45C70.2951 21.0833 70.6535 20.6 70.9201 20ZM77.2631 7.95C77.8464 8 78.3548 8.15833 78.7881 8.425C79.2214 8.675 79.4381 9.05833 79.4381 9.575C79.4381 9.95833 79.2548 10.2667 78.8881 10.5C78.5381 10.7167 78.1131 10.825 77.6131 10.825C77.1298 10.825 76.7964 10.7 76.6131 10.45C76.4298 10.2 76.3381 9.94167 76.3381 9.675C76.3381 9.175 76.3881 8.75833 76.4881 8.425C76.6048 8.09167 76.8631 7.93333 77.2631 7.95ZM79.2631 19.025V19.75C79.2631 20.4 79.2798 21.0167 79.3131 21.6C79.3631 22.1667 79.4214 22.7417 79.4881 23.325C79.4881 23.525 79.3714 23.7083 79.1381 23.875C78.9048 24.025 78.6881 24.1 78.4881 24.1C78.1714 24.1 77.8464 24.0417 77.5131 23.925C77.1964 23.7917 77.0048 23.6333 76.9381 23.45C76.8381 22.9167 76.7881 22.4417 76.7881 22.025C76.7881 20.6583 76.7464 19.125 76.6631 17.425C76.5964 15.925 76.5631 14.875 76.5631 14.275C76.5631 13.975 76.7131 13.7167 77.0131 13.5C77.3131 13.2833 77.6298 13.175 77.9631 13.175C78.4464 13.175 78.7798 13.2833 78.9631 13.5C79.1631 13.7167 79.2631 14.0583 79.2631 14.525V19.025ZM89.3846 18.375C89.5179 18.4583 89.7762 18.6167 90.1596 18.85C90.5596 19.0667 90.8262 19.325 90.9596 19.625C91.0929 19.925 91.1596 20.3417 91.1596 20.875C91.1596 21.475 90.9846 22.0083 90.6346 22.475C90.2846 22.925 89.8346 23.275 89.2846 23.525C88.8846 23.7083 88.3929 23.85 87.8096 23.95C87.2429 24.05 86.7929 24.1 86.4596 24.1C86.1262 24.1 85.6929 24.05 85.1596 23.95C84.6429 23.85 84.2846 23.7583 84.0846 23.675C83.5679 23.375 83.1179 23.0083 82.7346 22.575C82.3679 22.1417 82.1846 21.7 82.1846 21.25C82.1846 20.9167 82.2929 20.6583 82.5096 20.475C82.7262 20.275 83.0096 20.175 83.3596 20.175C83.5262 20.175 83.7012 20.2417 83.8846 20.375C84.0679 20.4917 84.1929 20.6167 84.2596 20.75C84.4429 21.1833 84.7512 21.5083 85.1846 21.725C85.6179 21.9417 86.0596 22.05 86.5096 22.05C87.0929 22.05 87.6346 21.9583 88.1346 21.775C88.6346 21.575 88.8846 21.3083 88.8846 20.975C88.8846 20.825 88.8429 20.7083 88.7596 20.625C88.6929 20.525 88.5929 20.425 88.4596 20.325C88.2262 20.1583 87.8762 20.025 87.4096 19.925C86.9429 19.8083 86.6429 19.7333 86.5096 19.7C85.8262 19.55 85.1596 19.325 84.5096 19.025C83.8596 18.7083 83.3429 18.3333 82.9596 17.9C82.5762 17.4667 82.3846 16.9083 82.3846 16.225C82.3846 15.775 82.5512 15.3083 82.8846 14.825C83.2179 14.325 83.5929 13.975 84.0096 13.775C84.3096 13.6583 84.8096 13.5333 85.5096 13.4C86.2262 13.2667 86.7096 13.2 86.9596 13.2C87.3429 13.2 87.7596 13.2417 88.2096 13.325C88.6596 13.3917 89.0012 13.5083 89.2346 13.675C89.6846 13.9417 90.0512 14.225 90.3346 14.525C90.6179 14.8083 90.7596 15.1333 90.7596 15.5C90.7596 15.6833 90.7179 15.8833 90.6346 16.1C90.5512 16.3 90.4512 16.425 90.3346 16.475C90.0846 16.5917 89.7929 16.65 89.4596 16.65C89.3096 16.65 89.1846 16.6083 89.0846 16.525C89.0012 16.4417 88.8846 16.3083 88.7346 16.125C88.5512 15.8417 88.3762 15.675 88.2096 15.625C88.0096 15.575 87.7179 15.5167 87.3346 15.45C86.9512 15.3667 86.6929 15.325 86.5596 15.325C86.1762 15.325 85.7762 15.4333 85.3596 15.65C84.9596 15.8667 84.7596 16.1167 84.7596 16.4C84.7596 16.55 84.8179 16.6667 84.9346 16.75C85.0679 16.8333 85.2012 16.9083 85.3346 16.975C85.4846 17.0417 85.5846 17.0833 85.6346 17.1C85.9846 17.2667 86.3679 17.4083 86.7846 17.525C87.2179 17.6417 87.4846 17.7167 87.5846 17.75C88.4846 17.9667 89.0846 18.175 89.3846 18.375ZM96.3174 20.125C96.3174 20.7583 96.409 21.25 96.5924 21.6C96.7924 21.9333 97.0424 22.1 97.3424 22.1C97.509 22.1 97.6674 22.0917 97.8174 22.075C97.9674 22.0417 98.1174 22.025 98.2674 22.025C98.434 22.025 98.5757 22.1083 98.6924 22.275C98.8257 22.4417 98.8924 22.625 98.8924 22.825C98.8924 23.225 98.7007 23.5417 98.3174 23.775C97.9507 23.9917 97.4507 24.1 96.8174 24.1C96.3674 24.1 95.909 23.9667 95.4424 23.7C94.9924 23.4167 94.6174 22.9833 94.3174 22.4C94.0174 21.8 93.8674 21.0583 93.8674 20.175C93.8674 18.275 93.9007 16.6667 93.9674 15.35C94.0507 13.7833 94.0924 11.8083 94.0924 9.425C94.0924 8.675 94.134 8.15 94.2174 7.85C94.3174 7.61667 94.4757 7.44167 94.6924 7.325C94.9257 7.19167 95.1674 7.125 95.4174 7.125C95.6674 7.125 95.884 7.16667 96.0674 7.25C96.2674 7.33333 96.4007 7.46667 96.4674 7.65C96.534 7.85 96.5757 8.05 96.5924 8.25C96.6257 8.43333 96.6424 8.7 96.6424 9.05C96.6424 9.73333 96.6174 10.3917 96.5674 11.025C96.534 11.7917 96.5174 12.35 96.5174 12.7C96.384 15.6333 96.3174 18.1083 96.3174 20.125ZM103.422 29.1C102.806 29.1 102.281 28.9917 101.847 28.775C101.414 28.575 101.089 28.325 100.872 28.025C100.672 27.7417 100.572 27.4917 100.572 27.275C100.572 26.975 100.681 26.7083 100.897 26.475C101.114 26.2583 101.356 26.15 101.622 26.15C101.772 26.15 101.914 26.2 102.047 26.3C102.197 26.4 102.289 26.4583 102.322 26.475C102.406 26.5417 102.514 26.6417 102.647 26.775C102.781 26.925 102.914 27 103.047 27C103.431 27 103.739 26.7583 103.972 26.275C104.206 25.7917 104.431 25.0083 104.647 23.925C103.547 22.1083 102.506 20.2583 101.522 18.375C100.539 16.4917 100.047 15.2167 100.047 14.55C100.047 14.1333 100.197 13.825 100.497 13.625C100.797 13.425 101.139 13.325 101.522 13.325C101.806 13.325 102.031 13.3833 102.197 13.5C102.364 13.6 102.497 13.7917 102.597 14.075C103.064 15.4917 103.539 16.7583 104.022 17.875C104.506 18.975 105.064 20.0833 105.697 21.2C105.997 20.5333 106.356 19.4417 106.772 17.925C107.022 17.0417 107.239 16.325 107.422 15.775C107.606 15.2083 107.814 14.6917 108.047 14.225C108.197 13.925 108.381 13.6833 108.597 13.5C108.831 13.3167 109.081 13.225 109.347 13.225C109.647 13.225 109.956 13.3333 110.272 13.55C110.606 13.75 110.772 13.9917 110.772 14.275C110.772 14.3583 110.714 14.5583 110.597 14.875C109.947 16.325 109.372 17.725 108.872 19.075C108.372 20.4083 107.906 21.875 107.472 23.475C107.206 24.325 106.922 25.15 106.622 25.95C106.322 26.7667 106.114 27.275 105.997 27.475C105.647 27.9417 105.272 28.325 104.872 28.625C104.472 28.9417 103.989 29.1 103.422 29.1Z" fill="black"/>
</svg>
