<svg width="48" height="48" viewBox="0 0 48 48" fill="none" xmlns="http://www.w3.org/2000/svg">
<path d="M30.1824 36.4588H13.2511C11.6998 36.4588 10.1637 36.1532 8.73055 35.5596C7.29735 34.9659 5.99512 34.0958 4.89821 32.9989C3.80129 31.902 2.93117 30.5997 2.33752 29.1665C1.74387 27.7333 1.43832 26.1973 1.43832 24.646C1.43832 23.0947 1.74387 21.5586 2.33752 20.1254C2.93117 18.6922 3.80129 17.39 4.89821 16.2931C5.99512 15.1962 7.29735 14.326 8.73055 13.7324C10.1637 13.1387 11.6998 12.8332 13.2511 12.8332C13.9702 12.8329 14.6878 12.898 15.3951 13.0276C16.5923 10.5245 18.4036 8.36517 20.6603 6.75081C23.4495 4.75487 26.7422 3.69983 30.1824 3.69983C33.962 3.70058 37.625 5.00818 40.5507 7.40101C43.4763 9.79383 45.4846 13.1247 46.2351 16.829C46.9856 20.5332 46.4321 24.3831 44.6686 27.726C42.905 31.0688 40.0398 33.6991 36.5586 35.1709C34.5415 36.0248 32.3728 36.4629 30.1824 36.4588Z" fill="url(#paint0_linear_121_8)"/>
<path d="M10.9547 44.3002C9.65181 44.3002 8.74745 43.0025 9.19808 41.7803L10.4241 38.4552C10.4641 38.3467 10.5365 38.2531 10.6314 38.187C10.7262 38.1209 10.8391 38.0855 10.9547 38.0855C11.0703 38.0855 11.1831 38.121 11.278 38.187C11.3728 38.2531 11.4451 38.3467 11.4851 38.4552L12.7112 41.7803C13.1618 43.0025 12.2574 44.3002 10.9547 44.3002Z" fill="url(#paint1_linear_121_8)"/>
<path d="M24 44.3002C22.6973 44.3002 21.7927 43.0025 22.2436 41.7803L23.4696 38.4552C23.5096 38.3467 23.5819 38.2531 23.6767 38.187C23.7716 38.1209 23.8844 38.0855 24 38.0855C24.1156 38.0855 24.2284 38.1209 24.3233 38.187C24.4181 38.2531 24.4904 38.3467 24.5304 38.4552L25.7564 41.7803C26.2073 43.0025 25.3027 44.3002 24 44.3002Z" fill="url(#paint2_linear_121_8)"/>
<path d="M37.0453 44.3002C35.7426 44.3002 34.8382 43.0025 35.2888 41.7803L36.5149 38.4552C36.5549 38.3467 36.6272 38.2531 36.722 38.187C36.8169 38.121 36.9297 38.0855 37.0453 38.0855C37.1609 38.0855 37.2737 38.1209 37.3686 38.187C37.4635 38.2531 37.5358 38.3467 37.5759 38.4552L38.8019 41.7803C39.2525 43.0025 38.3482 44.3002 37.0453 44.3002Z" fill="url(#paint3_linear_121_8)"/>
<defs>
<linearGradient id="paint0_linear_121_8" x1="1.43809" y1="20.0793" x2="46.5619" y2="20.0793" gradientUnits="userSpaceOnUse">
<stop stop-color="#69BBFF"/>
<stop offset="1" stop-color="#9DE0F4"/>
</linearGradient>
<linearGradient id="paint1_linear_121_8" x1="25.3867" y1="23.9408" x2="0.809304" y2="53.9644" gradientUnits="userSpaceOnUse">
<stop stop-color="#69BBFF"/>
<stop offset="1" stop-color="#1798FF"/>
</linearGradient>
<linearGradient id="paint2_linear_121_8" x1="33.1978" y1="30.335" x2="8.62018" y2="60.3587" gradientUnits="userSpaceOnUse">
<stop stop-color="#69BBFF"/>
<stop offset="1" stop-color="#1798FF"/>
</linearGradient>
<linearGradient id="paint3_linear_121_8" x1="41.009" y1="36.7291" x2="16.4313" y2="66.7527" gradientUnits="userSpaceOnUse">
<stop stop-color="#69BBFF"/>
<stop offset="1" stop-color="#1798FF"/>
</linearGradient>
</defs>
</svg>
