<svg width="48" height="48" viewBox="0 0 48 48" fill="none" xmlns="http://www.w3.org/2000/svg">
<path fill-rule="evenodd" clip-rule="evenodd" d="M6.7575 11.0775C3.78 11.085 3.75 12.825 3.75 13.9275V28.2L19.2225 15.4425C19.2225 15.4425 15.0225 11.0475 6.7575 11.07V11.0775Z" fill="#FECCC7"/>
<path fill-rule="evenodd" clip-rule="evenodd" d="M44.235 28.2075H44.25C44.25 26.7975 44.2425 24.57 43.935 23.805C43.2225 22.0275 41.5725 18.9225 38.16 16.665L26.865 13.95C16.245 14.49 6.76499 21.7875 4.63499 24.57C3.89249 25.5375 3.74249 27.1575 3.74249 28.1925H44.235V28.2075Z" fill="#FFDED4"/>
<path fill-rule="evenodd" clip-rule="evenodd" d="M26.175 23.8726C26.175 23.8726 30.9825 21.7951 36.1725 23.8726L36.945 43.2901H9.73499L13.2375 25.1926L26.1675 23.8726H26.175Z" fill="#62D9FA"/>
<path fill-rule="evenodd" clip-rule="evenodd" d="M44.25 29.2725C44.25 27.03 44.25 23.8725 39.48 23.8725C39.48 23.8725 37.47 23.8875 36.1725 23.8725C34.065 23.8575 31.41 24.3375 28.0725 25.5825C22.7775 27.765 17.025 33.2025 26.4075 35.64C31.92 37.0725 33.855 39.4575 34.515 41.19C34.935 42.285 35.7675 43.29 36.9525 43.29L42.4425 37.5225L44.2575 30.06V29.2725H44.25Z" fill="#9AF6D3"/>
<path fill-rule="evenodd" clip-rule="evenodd" d="M5.0475 43.2975C4.3275 43.2975 3.75 42.72 3.75 42V28.2C3.75 27.33 4.0425 23.91 7.98 23.88H26.175C26.175 23.88 18.51 26.5575 15.2025 32.625C12.225 38.085 16.8825 43.2975 9.7425 43.2975H5.0475Z" fill="#9AF6D3"/>
<path fill-rule="evenodd" clip-rule="evenodd" d="M44.25 35.6325V30.06C43.6425 30.105 43.065 30.3375 42.5925 30.72L41.0025 31.995C40.515 32.3925 40.2525 33.0075 40.3125 33.63L40.5 35.655L44.2575 35.64L44.25 35.6325Z" fill="#FCBFAD"/>
<path fill-rule="evenodd" clip-rule="evenodd" d="M42.2325 35.205C41.7975 35.19 41.37 35.2725 40.965 35.445L39.09 36.24C38.5125 36.4875 38.0925 37.005 37.98 37.6275L36.945 43.29H42.9525C43.6725 43.29 44.25 42.7125 44.25 41.9925V35.6325L42.87 35.295C42.66 35.2425 42.4425 35.2125 42.225 35.205H42.2325Z" fill="#FECCBA"/>
<path fill-rule="evenodd" clip-rule="evenodd" d="M24.8625 7.15503C23.8875 7.15503 23.1 7.94253 23.1 8.91753C23.1 9.89253 23.8875 10.68 24.8625 10.68H28.9125C29.595 10.68 30.1425 11.235 30.1425 11.9175C30.1425 12.6 29.595 13.1475 28.9125 13.155H28.3425C27.3675 13.155 26.58 13.9425 26.58 14.9175C26.58 15.8925 27.3675 16.68 28.3425 16.68H41.3175C42.2925 16.68 43.08 15.8925 43.08 14.9175C43.08 13.9425 42.2925 13.155 41.3175 13.155H37.875C37.1925 13.155 36.6375 12.6 36.6375 11.9175C36.6375 11.235 37.1925 10.68 37.875 10.68H38.9025C39.8775 10.68 40.665 9.89253 40.665 8.91753C40.665 7.94253 39.8775 7.15503 38.9025 7.15503H24.8625Z" fill="#D1F1F4"/>
<path fill-rule="evenodd" clip-rule="evenodd" d="M10.695 4.71002H15.48C16.425 4.71002 17.1825 5.46752 17.1825 6.41252C17.1825 7.35752 16.425 8.11502 15.48 8.11502H10.695C9.74999 8.11502 8.99249 7.35752 8.99249 6.41252C8.99249 5.46752 9.74999 4.71002 10.695 4.71002Z" fill="#D1F1F4"/>
<path fill-rule="evenodd" clip-rule="evenodd" d="M10.005 28.95C9.59252 28.95 9.25502 29.2875 9.25502 29.7V30.1875C9.00752 30.06 8.70002 29.9025 8.70002 29.9025C8.30252 29.805 7.89002 30.0525 7.79252 30.45C7.77752 30.51 7.77002 30.57 7.77002 30.63C7.77002 30.975 8.01002 31.275 8.34002 31.3575C8.34002 31.3575 8.99252 31.4475 9.28502 32.43C9.38252 32.745 9.67502 32.9625 10.005 32.9625C10.335 32.9625 10.6275 32.745 10.725 32.43C11.025 31.455 11.67 31.3575 11.67 31.3575C12 31.275 12.24 30.975 12.24 30.63C12.24 30.57 12.24 30.51 12.2175 30.45C12.12 30.0525 11.7075 29.805 11.31 29.9025C11.31 29.9025 11.0025 30.06 10.755 30.1875V29.7C10.755 29.2875 10.4175 28.95 10.005 28.95Z" fill="#6DF4C0"/>
<path fill-rule="evenodd" clip-rule="evenodd" d="M30.9825 30.03C30.57 30.03 30.2325 30.3675 30.2325 30.78V31.2675C29.985 31.14 29.6775 30.9825 29.6775 30.9825C29.28 30.885 28.8675 31.1325 28.77 31.53C28.6725 31.9275 28.92 32.34 29.3175 32.4375C29.3175 32.4375 29.97 32.5275 30.2625 33.51C30.36 33.825 30.6525 34.0425 30.9825 34.0425C31.3125 34.0425 31.605 33.825 31.7025 33.51C32.0025 32.535 32.6475 32.4375 32.6475 32.4375C33.045 32.34 33.2925 31.9275 33.195 31.53C33.1125 31.2 32.8125 30.96 32.4675 30.96C32.4075 30.96 32.3475 30.96 32.2875 30.9825C32.2875 30.9825 31.98 31.14 31.7325 31.2675V30.78C31.7325 30.3675 31.395 30.03 30.9825 30.03Z" fill="#6DF4C0"/>
<path fill-rule="evenodd" clip-rule="evenodd" d="M37.305 26.5575C36.8925 26.5575 36.555 26.895 36.555 27.3075V27.795C36.3075 27.6675 36 27.51 36 27.51C35.6025 27.4125 35.19 27.66 35.0925 28.0575C34.995 28.455 35.2425 28.8675 35.64 28.965C35.64 28.965 36.2925 29.055 36.585 30.0375C36.6825 30.3525 36.975 30.57 37.305 30.57C37.635 30.57 37.9275 30.3525 38.025 30.0375C38.325 29.0625 38.97 28.965 38.97 28.965C39.3675 28.8675 39.615 28.455 39.5175 28.0575C39.42 27.66 39.0075 27.4125 38.61 27.51C38.61 27.51 38.3025 27.6675 38.055 27.795V27.3075C38.055 26.895 37.7175 26.5575 37.305 26.5575Z" fill="#6DF4C0"/>
</svg>
