<svg width="48" height="48" viewBox="0 0 48 48" fill="none" xmlns="http://www.w3.org/2000/svg">
<path d="M19.4947 2.99788C14.1563 2.99788 9.91735 7.07816 9.23731 12.2352C5.72373 12.8529 3.00354 15.7998 3.00354 19.489C3.00354 23.6146 6.38111 26.9695 10.4841 26.9695H38.9894C42.2876 26.9695 44.9965 24.2664 44.9965 20.9625C44.9965 18.1969 43.0583 15.9528 40.4968 15.2954C40.4968 15.1651 40.4967 15.0936 40.4968 14.9911C40.4968 10.8655 37.1192 7.51056 33.0163 7.51056C31.4692 7.51078 30.0808 8.12826 28.8397 8.98966C27.1112 5.43641 23.592 2.98257 19.5457 2.98257L19.4947 2.99788Z" fill="#0095FF"/>
<path d="M14.961 29.9787C14.5809 29.9932 14.2203 30.1514 13.9523 30.4213L7.94522 36.4284C7.73831 36.6384 7.59776 36.9046 7.54108 37.1938C7.48441 37.4831 7.51411 37.7826 7.6265 38.0551C7.73888 38.3277 7.92898 38.5611 8.17309 38.7263C8.4172 38.8915 8.70454 38.9812 8.99929 38.9843H11.3908L7.94522 42.4185C7.80557 42.558 7.69478 42.7236 7.61919 42.9059C7.54361 43.0883 7.5047 43.2837 7.5047 43.4811C7.5047 43.6785 7.54361 43.8739 7.61919 44.0562C7.69478 44.2385 7.80557 44.4042 7.94522 44.5437C8.22644 44.8222 8.60628 44.9785 9.00213 44.9785C9.39797 44.9785 9.77781 44.8222 10.059 44.5437L16.0661 38.5366C16.2737 38.3259 16.4144 38.0587 16.4707 37.7684C16.527 37.4781 16.4964 37.1776 16.3826 36.9047C16.2688 36.6317 16.077 36.3984 15.8311 36.2341C15.5853 36.0697 15.2964 35.9816 15.0007 35.9807H12.6205L16.0661 32.5352C16.3447 32.2539 16.501 31.8741 16.501 31.4782C16.501 31.0824 16.3447 30.7026 16.0661 30.4213C15.9218 30.2761 15.7493 30.162 15.5593 30.0859C15.3693 30.0098 15.1657 29.9733 14.961 29.9787ZM26.9752 29.9787C26.5911 29.9903 26.226 30.1487 25.9551 30.4213L19.9481 36.4284C19.7405 36.6391 19.5997 36.9063 19.5434 37.1966C19.4871 37.4869 19.5178 37.7874 19.6316 38.0603C19.7454 38.3333 19.9372 38.5666 20.183 38.7309C20.4289 38.8953 20.7177 38.9834 21.0135 38.9843H23.3936L19.9481 42.4185C19.8084 42.558 19.6976 42.7236 19.622 42.9059C19.5464 43.0883 19.5075 43.2837 19.5075 43.4811C19.5075 43.6785 19.5464 43.8739 19.622 44.0562C19.6976 44.2385 19.8084 44.4042 19.9481 44.5437C20.0875 44.6833 20.2532 44.7941 20.4355 44.8697C20.6178 44.9453 20.8133 44.9842 21.0106 44.9842C21.208 44.9842 21.4034 44.9453 21.5858 44.8697C21.7681 44.7941 21.9337 44.6833 22.0732 44.5437L28.0803 38.5366C28.2878 38.3259 28.4286 38.0587 28.4849 37.7684C28.5412 37.4781 28.5105 37.1776 28.3968 36.9047C28.283 36.6317 28.0911 36.3984 27.8453 36.2341C27.5995 36.0697 27.3106 35.9816 27.0149 35.9807H24.6347L28.0803 32.5352C28.3589 32.2539 28.5152 31.8741 28.5152 31.4782C28.5152 31.0824 28.3589 30.7026 28.0803 30.4213C27.936 30.2761 27.7635 30.162 27.5735 30.0859C27.3834 30.0098 27.1798 29.9733 26.9752 29.9787Z" fill="#FFDF5F"/>
<path d="M38.9327 29.9787C38.5525 29.9932 38.192 30.1514 37.924 30.4213L31.9169 36.4284C31.7093 36.6391 31.5686 36.9063 31.5123 37.1966C31.456 37.4869 31.4866 37.7874 31.6004 38.0603C31.7142 38.3333 31.906 38.5666 32.1519 38.7309C32.3977 38.8953 32.6866 38.9834 32.9823 38.9843H35.3625L31.9169 42.4185C31.7772 42.558 31.6664 42.7236 31.5909 42.9059C31.5153 43.0883 31.4764 43.2837 31.4764 43.4811C31.4764 43.6784 31.5153 43.8739 31.5909 44.0562C31.6664 44.2385 31.7772 44.4042 31.9169 44.5436C32.0564 44.6833 32.222 44.7941 32.4043 44.8697C32.5866 44.9453 32.7821 44.9842 32.9795 44.9842C33.1768 44.9842 33.3723 44.9453 33.5546 44.8697C33.7369 44.7941 33.9026 44.6833 34.042 44.5436L40.0491 38.5366C40.2567 38.3259 40.3974 38.0587 40.4537 37.7684C40.51 37.4781 40.4794 37.1776 40.3656 36.9047C40.2518 36.6317 40.06 36.3984 39.8141 36.2341C39.5683 36.0697 39.2794 35.9816 38.9837 35.9807H36.6035L40.0491 32.5351C40.3277 32.2539 40.484 31.8741 40.484 31.4782C40.484 31.0824 40.3277 30.7026 40.0491 30.4213C39.9035 30.2747 39.7292 30.1597 39.5371 30.0836C39.345 30.0074 39.1392 29.9717 38.9327 29.9787Z" fill="#FFC901"/>
<path d="M23.9717 4.07462V27.0262H38.9894C42.2876 27.0262 44.9965 24.323 44.9965 21.0191C44.9965 18.2536 43.0583 16.0094 40.4968 15.3521C40.4968 15.2217 40.4967 15.1503 40.4968 15.0477C40.4968 10.9221 37.1192 7.56722 33.0163 7.56722C31.4692 7.56745 30.0808 8.18493 28.8397 9.04633C27.7969 6.90418 26.0911 5.18139 24.017 4.14432L23.9717 4.07462Z" fill="#3650DC"/>
<path d="M26.9752 29.9788C26.5912 29.9902 26.2261 30.1484 25.9551 30.4208L24.017 32.3589V42.6163L28.0803 38.553C28.2898 38.3427 28.4322 38.075 28.4896 37.7837C28.547 37.4924 28.5168 37.1907 28.4028 36.9165C28.2888 36.6424 28.0961 36.4083 27.8491 36.2436C27.602 36.079 27.3117 35.9912 27.0149 35.9915H24.6347L28.0803 32.5516C28.3589 32.2704 28.5152 31.8905 28.5152 31.4947C28.5152 31.0989 28.3589 30.719 28.0803 30.4378C27.9359 30.2927 27.7634 30.1786 27.5734 30.1026C27.3834 30.0266 27.1798 29.9902 26.9752 29.9958V29.9788Z" fill="#FFC901"/>
</svg>
