<svg width="48" height="48" viewBox="0 0 48 48" fill="none" xmlns="http://www.w3.org/2000/svg">
<path d="M37.8121 15.5955C36.8986 15.5955 36.0927 15.4076 35.3473 15.0224C34.7284 14.7014 34.2768 14.311 33.8782 13.9666C33.2762 13.4463 33.0016 13.2086 32.287 13.2086C31.5725 13.2086 31.2979 13.4475 30.6959 13.9666C30.2976 14.311 29.8457 14.7014 29.227 15.0224C28.4819 15.4088 27.6747 15.5955 26.762 15.5955C25.8493 15.5955 25.0426 15.4076 24.2973 15.0224C23.6786 14.7014 23.227 14.311 22.8284 13.9666C22.2264 13.4463 21.9518 13.2086 21.2375 13.2086C20.5232 13.2086 20.2484 13.4475 19.6463 13.9666C19.2478 14.3098 18.7962 14.7002 18.1774 15.0209C17.4324 15.4073 16.6252 15.5941 15.7127 15.5941C14.8002 15.5941 13.9933 15.4061 13.2478 15.0209C12.629 14.7 12.1774 14.3095 11.7789 13.9652C11.1761 13.4448 10.9022 13.2075 10.1879 13.2075C9.71293 13.2075 9.25737 13.0188 8.92148 12.6829C8.5856 12.347 8.3969 11.8914 8.3969 11.4164C8.3969 10.9414 8.5856 10.4858 8.92148 10.15C9.25737 9.81406 9.71293 9.62537 10.1879 9.62537C11.1014 9.62537 11.9073 9.81331 12.6527 10.1997C13.2714 10.5206 13.7232 10.9111 14.1216 11.2555C14.7236 11.7758 14.9982 12.0134 15.7127 12.0134C16.4272 12.0134 16.7016 11.7758 17.3036 11.2555C17.7022 10.9111 18.1538 10.5206 18.7725 10.1997C19.5176 9.81331 20.3248 9.62537 21.2375 9.62537C22.1502 9.62537 22.9569 9.81331 23.7022 10.1997C24.321 10.5206 24.7725 10.9111 25.1711 11.2555C25.7731 11.7758 26.0478 12.0134 26.762 12.0134C27.4763 12.0134 27.7514 11.7758 28.3534 11.2555C28.7518 10.9111 29.2033 10.5206 29.8223 10.1997C30.5672 9.81331 31.3746 9.62537 32.287 9.62537C33.1995 9.62537 34.0064 9.81331 34.752 10.1997C35.3707 10.5206 35.8223 10.9111 36.2209 11.2555C36.8229 11.7758 37.0978 12.0134 37.8121 12.0134C38.2871 12.0134 38.7426 12.2021 39.0785 12.538C39.4144 12.8739 39.6031 13.3295 39.6031 13.8045C39.6031 14.2795 39.4144 14.735 39.0785 15.0709C38.7426 15.4068 38.2871 15.5955 37.8121 15.5955Z" fill="url(#paint0_linear_121_21)"/>
<path d="M37.8121 23.188C36.8986 23.188 36.0927 23.0001 35.3473 22.6149C34.7284 22.294 34.2768 21.9035 33.8782 21.5591C33.2762 21.0388 33.0016 20.8 32.2866 20.8C31.5716 20.8 31.2974 21.0388 30.6954 21.558C30.2971 21.9023 29.8453 22.2928 29.2265 22.6137C28.4814 23.0001 27.6743 23.1869 26.7616 23.1869C25.8488 23.1869 25.0422 22.9989 24.2968 22.6137C23.6781 22.2928 23.2265 21.9023 22.8279 21.558C22.2264 21.0388 21.9518 20.8 21.2375 20.8C20.5232 20.8 20.2484 21.0388 19.6463 21.558C19.2478 21.9028 18.7962 22.2932 18.1774 22.6149C17.4324 23.0013 16.6252 23.188 15.7127 23.188C14.8002 23.188 13.9933 23.0001 13.2478 22.6149C12.629 22.294 12.1774 21.9035 11.7789 21.5591C11.1761 21.0388 10.9022 20.8 10.1879 20.8C9.71293 20.8 9.25737 20.6113 8.92148 20.2754C8.5856 19.9395 8.3969 19.484 8.3969 19.0089C8.3969 18.5339 8.5856 18.0784 8.92148 17.7425C9.25737 17.4066 9.71293 17.2179 10.1879 17.2179C11.1014 17.2179 11.9073 17.4058 12.6527 17.7922C13.2714 18.1132 13.7232 18.5036 14.1216 18.848C14.7236 19.3688 14.9982 19.606 15.7134 19.606C16.4287 19.606 16.7023 19.3683 17.3044 18.848C17.7029 18.5036 18.1545 18.1132 18.7733 17.7922C19.5183 17.4058 20.3255 17.2179 21.2382 17.2179C22.1509 17.2179 22.9576 17.4058 23.7029 17.7922C24.3217 18.1132 24.7733 18.5036 25.1718 18.848C25.7739 19.3683 26.0485 19.606 26.7627 19.606C27.477 19.606 27.7521 19.3683 28.3541 18.848C28.7525 18.5036 29.2041 18.1132 29.823 17.7922C30.5672 17.4063 31.3736 17.2179 32.2866 17.2179C33.1995 17.2179 34.006 17.4058 34.7515 17.7922C35.3703 18.1132 35.8219 18.5036 36.2204 18.848C36.8239 19.3688 37.0978 19.606 37.8121 19.606C38.2871 19.606 38.7426 19.7947 39.0785 20.1305C39.4144 20.4664 39.6031 20.922 39.6031 21.397C39.6031 21.872 39.4144 22.3276 39.0785 22.6635C38.7426 22.9993 38.2871 23.188 37.8121 23.188Z" fill="url(#paint1_linear_121_21)"/>
<path d="M37.8121 30.782C36.8986 30.782 36.0927 30.5941 35.3473 30.2089C34.7284 29.8879 34.2768 29.4975 33.8782 29.1531C33.2762 28.6328 33.0016 28.3952 32.287 28.3952C31.5725 28.3952 31.2979 28.634 30.6959 29.1531C30.2976 29.4975 29.8457 29.8879 29.227 30.2089C28.4819 30.5953 27.6747 30.782 26.762 30.782C25.8493 30.782 25.0426 30.5941 24.2973 30.2089C23.6786 29.8879 23.227 29.4975 22.8284 29.1531C22.2264 28.6328 21.9518 28.3952 21.2375 28.3952C20.5232 28.3952 20.2484 28.634 19.6463 29.1531C19.2478 29.4975 18.7962 29.8879 18.1774 30.2089C17.4324 30.5953 16.6252 30.782 15.7127 30.782C14.8002 30.782 13.9933 30.5941 13.2478 30.2089C12.629 29.8879 12.1774 29.4975 11.7789 29.1531C11.1761 28.6311 10.9022 28.394 10.1879 28.394C9.71293 28.394 9.25737 28.2053 8.92148 27.8694C8.5856 27.5335 8.3969 27.0779 8.3969 26.6029C8.3969 26.1279 8.5856 25.6724 8.92148 25.3365C9.25737 25.0006 9.71293 24.8119 10.1879 24.8119C11.1014 24.8119 11.9073 24.9998 12.6527 25.385C13.2714 25.706 13.7232 26.0964 14.1216 26.4408C14.7236 26.9611 14.9982 27.1999 15.7134 27.1999C16.4287 27.1999 16.7023 26.9611 17.3044 26.442C17.7029 26.0976 18.1545 25.7072 18.7733 25.3862C19.5183 24.9998 20.3255 24.8131 21.2382 24.8131C22.1509 24.8131 22.9576 25.001 23.7029 25.3862C24.3217 25.7072 24.7733 26.0976 25.1718 26.442C25.7739 26.9623 26.0485 27.1999 26.7627 27.1999C27.477 27.1999 27.7521 26.9611 28.3541 26.442C28.7525 26.0976 29.2041 25.7072 29.823 25.3862C30.5679 24.9998 31.3753 24.8131 32.2878 24.8131C33.2002 24.8131 34.0072 25.001 34.7527 25.3862C35.3715 25.7072 35.823 26.0976 36.2216 26.442C36.8239 26.9611 37.0978 27.1999 37.8121 27.1999C38.2871 27.1999 38.7426 27.3886 39.0785 27.7245C39.4144 28.0604 39.6031 28.516 39.6031 28.991C39.6031 29.466 39.4144 29.9216 39.0785 30.2575C38.7426 30.5933 38.2871 30.782 37.8121 30.782Z" fill="url(#paint2_linear_121_21)"/>
<path d="M37.8121 38.3747C36.8986 38.3747 36.0927 38.1868 35.3473 37.8016C34.7284 37.4806 34.2768 37.0902 33.8782 36.7458C33.2762 36.2255 33.0016 35.9879 32.287 35.9879C31.5725 35.9879 31.2979 36.2267 30.6959 36.7458C30.2976 37.0902 29.8457 37.4806 29.227 37.8016C28.4819 38.188 27.6747 38.3747 26.762 38.3747C25.8493 38.3747 25.0426 38.1868 24.2973 37.8016C23.6786 37.4806 23.227 37.0902 22.8284 36.7458C22.2264 36.2255 21.9518 35.9879 21.2375 35.9879C20.5232 35.9879 20.2484 36.2267 19.6463 36.7458C19.2478 37.0902 18.7962 37.4806 18.1774 37.8016C17.4324 38.188 16.6252 38.3747 15.7127 38.3747C14.8002 38.3747 13.9933 38.1868 13.2478 37.8016C12.629 37.4806 12.1774 37.0902 11.7789 36.7458C11.1771 36.2255 10.9022 35.9879 10.1879 35.9879C9.71293 35.9879 9.25737 35.7992 8.92148 35.4633C8.5856 35.1274 8.3969 34.6718 8.3969 34.1968C8.3969 33.7218 8.5856 33.2662 8.92148 32.9303C9.25737 32.5945 9.71293 32.4058 10.1879 32.4058C11.1014 32.4058 11.9073 32.5937 12.6527 32.9789C13.2714 33.2999 13.7232 33.6903 14.1216 34.0347C14.7236 34.555 14.9982 34.7926 15.7127 34.7926C16.4272 34.7926 16.7016 34.5538 17.3036 34.0347C17.7022 33.6903 18.1538 33.2999 18.7725 32.9789C19.5176 32.5925 20.3248 32.4058 21.2375 32.4058C22.1502 32.4058 22.9569 32.5937 23.7022 32.9789C24.321 33.2999 24.7725 33.6903 25.1711 34.0347C25.7731 34.555 26.0478 34.7926 26.762 34.7926C27.4763 34.7926 27.7514 34.5538 28.3534 34.0347C28.7518 33.6903 29.2033 33.2999 29.8223 32.9789C30.5672 32.5925 31.3746 32.4058 32.287 32.4058C33.1995 32.4058 34.0064 32.5937 34.752 32.9789C35.3707 33.2999 35.8223 33.6903 36.2209 34.0347C36.8229 34.555 37.0978 34.7926 37.8121 34.7926C38.2871 34.7926 38.7426 34.9813 39.0785 35.3172C39.4144 35.6531 39.6031 36.1087 39.6031 36.5837C39.6031 37.0587 39.4144 37.5142 39.0785 37.8501C38.7426 38.186 38.2871 38.3747 37.8121 38.3747Z" fill="url(#paint3_linear_121_21)"/>
<defs>
<linearGradient id="paint0_linear_121_21" x1="36.1992" y1="-5.75254" x2="18.9032" y2="20.2826" gradientUnits="userSpaceOnUse">
<stop stop-color="#69BBFF"/>
<stop offset="1" stop-color="#1798FF"/>
</linearGradient>
<linearGradient id="paint1_linear_121_21" x1="33.3729" y1="-2.23285" x2="18.8079" y2="32.6323" gradientUnits="userSpaceOnUse">
<stop stop-color="#69BBFF"/>
<stop offset="1" stop-color="#9DE0F4"/>
</linearGradient>
<linearGradient id="paint2_linear_121_21" x1="43.1988" y1="-1.10262" x2="25.9028" y2="24.9325" gradientUnits="userSpaceOnUse">
<stop stop-color="#69BBFF"/>
<stop offset="1" stop-color="#1798FF"/>
</linearGradient>
<linearGradient id="paint3_linear_121_21" x1="38.7742" y1="0.0236773" x2="24.2092" y2="34.8889" gradientUnits="userSpaceOnUse">
<stop stop-color="#69BBFF"/>
<stop offset="1" stop-color="#9DE0F4"/>
</linearGradient>
</defs>
</svg>
