<svg width="48" height="48" viewBox="0 0 48 48" fill="none" xmlns="http://www.w3.org/2000/svg">
<path d="M0.843736 33.8869C0.718201 33.8872 0.594863 33.8539 0.48653 33.7905C0.378198 33.7271 0.288823 33.6358 0.227687 33.5262C0.166551 33.4165 0.135884 33.2925 0.138871 33.167C0.141858 33.0415 0.17839 32.9191 0.244674 32.8125C2.87624 28.5366 6.16592 25.4419 10.0219 23.6147C13.0125 22.1972 16.2581 21.5653 19.6687 21.7397C21.8709 21.8494 24.3665 22.2441 26.7806 22.6256C30.644 23.2359 34.6397 23.8678 37.6134 23.3878C41.6165 22.7428 45.5934 21.6431 46.4137 16.0397C46.6078 14.7159 46.0744 13.0772 45.0234 11.7619C44.0062 10.4897 42.6797 9.7303 41.2809 9.62343C39.2953 9.46874 37.8834 10.6425 36.5625 13.5431C36.4852 13.7128 36.3436 13.8448 36.1689 13.9102C35.9942 13.9755 35.8008 13.9687 35.6311 13.8914C35.4614 13.8141 35.3294 13.6725 35.264 13.4978C35.1987 13.3232 35.2055 13.1297 35.2828 12.96C36.3506 10.6162 38.0109 7.95937 41.3906 8.21905C43.1803 8.35593 44.8594 9.30187 46.124 10.8816C47.4112 12.4912 48.0562 14.5444 47.8115 16.2412C47.3831 19.1691 46.1615 21.2756 44.0775 22.6819C42.2109 23.9409 39.8784 24.4462 37.8441 24.7744C34.6481 25.29 30.5409 24.6403 26.5678 24.0131C24.0806 23.6203 21.7322 23.2491 19.605 23.1422C14.4047 22.8825 7.03311 24.4772 1.44842 33.5484C1.38544 33.6523 1.29664 33.738 1.19067 33.7973C1.0847 33.8566 0.965173 33.8875 0.843736 33.8869Z" fill="#1886D1"/>
<path d="M33.8156 39.8025C31.9406 39.8025 29.9034 38.5922 28.6191 36.5756C28.5686 36.4978 28.534 36.4107 28.5174 36.3194C28.5007 36.2281 28.5023 36.1344 28.522 36.0437C28.5417 35.953 28.5792 35.8672 28.6323 35.791C28.6854 35.7149 28.753 35.65 28.8312 35.6002C28.9095 35.5503 28.9969 35.5164 29.0883 35.5005C29.1797 35.4846 29.2734 35.4869 29.3639 35.5073C29.4544 35.5277 29.54 35.5659 29.6157 35.6196C29.6914 35.6732 29.7557 35.7414 29.805 35.82C31.2112 38.0316 33.4462 38.7713 34.7916 38.2088C36.4425 37.5178 36.9937 34.7306 36.3497 32.8838C35.0081 29.04 27.6366 27.9263 23.0775 28.3838C16.9387 29.0044 11.8903 31.8628 9.22593 36.226C9.17808 36.3053 9.115 36.3744 9.04033 36.4293C8.96567 36.4843 8.88088 36.5239 8.79086 36.5459C8.70083 36.5679 8.60734 36.5719 8.51576 36.5577C8.42418 36.5434 8.33632 36.5112 8.25723 36.4629C8.17815 36.4146 8.10939 36.3511 8.05492 36.2761C8.00045 36.2011 7.96135 36.1161 7.93985 36.026C7.91836 35.9358 7.9149 35.8423 7.92967 35.7508C7.94444 35.6593 7.97716 35.5716 8.02593 35.4928C10.9209 30.751 16.3556 27.6497 22.9322 26.985C25.6969 26.7038 28.8806 26.9719 31.4503 27.6985C34.7728 28.636 36.9244 30.2691 37.6734 32.4178C38.4497 34.6425 37.9331 38.4178 35.3297 39.5035C34.8498 39.7025 34.3351 39.8041 33.8156 39.8025ZM0.843747 25.5525C0.712112 25.5524 0.58315 25.5154 0.471536 25.4456C0.359923 25.3758 0.270141 25.2761 0.212408 25.1578C0.154675 25.0395 0.13131 24.9073 0.144972 24.7764C0.158633 24.6455 0.208773 24.521 0.289684 24.4172C0.366559 24.3235 2.205 21.99 5.92875 19.6031C9.34875 17.4113 15.0778 14.7591 22.9537 14.5716H22.9687C23.0611 14.5705 23.1527 14.5877 23.2384 14.6221C23.3241 14.6564 23.4022 14.7073 23.4683 14.7719C23.5343 14.8364 23.587 14.9134 23.6233 14.9983C23.6596 15.0832 23.6788 15.1744 23.6798 15.2667C23.6809 15.3591 23.6637 15.4507 23.6294 15.5364C23.595 15.6221 23.5441 15.7002 23.4795 15.7663C23.415 15.8323 23.3381 15.885 23.2532 15.9213C23.1682 15.9576 23.077 15.9768 22.9847 15.9778C15.465 16.156 9.99937 18.6731 6.73875 20.7525C3.19687 23.011 1.41281 25.26 1.395 25.2825C1.32955 25.3663 1.24593 25.4342 1.15044 25.4809C1.05494 25.5277 0.950077 25.5522 0.843747 25.5525Z" fill="#1886D1"/>
</svg>
